<svg width="100" height="88" viewBox="0 0 100 88" fill="none" xmlns="http://www.w3.org/2000/svg">
<path d="M90.5661 9.93982C90.5649 9.68648 90.3578 9.48148 90.1055 9.48148H67.6309C63.3918 9.48148 59.3244 11.1725 56.3269 14.1852L53.4248 17.1019V71.3935C58.0519 67.2984 64.0178 65.0139 70.2197 65.0139H90.1055C90.3585 65.0139 90.566 64.8098 90.5661 64.5556V9.93982ZM9.43388 64.5556C9.43398 64.8144 9.63867 65.0127 9.8853 65.0139H27.1961C33.3995 65.014 39.3644 67.2975 43.991 71.3935V17.1065L41.0843 14.1852C38.0868 11.1726 34.0194 9.48148 29.7803 9.48148H9.88991C9.63858 9.48266 9.43505 9.68721 9.43388 9.93982V64.5556ZM100 64.5556C99.9999 70.0463 95.5687 74.4954 90.1055 74.4954H70.2197C65.9806 74.4954 61.9132 76.1911 58.9157 79.2037L52.0429 86.1111C51.1588 86.9997 49.9581 87.4994 48.7079 87.5C47.4569 87.5 46.2529 87.0002 45.3683 86.1111L38.4956 79.2037C35.4977 76.1907 31.4345 74.4955 27.1961 74.4954H9.8853C4.41783 74.4941 0.000111675 70.0401 0 64.5556V9.93982C0.00118058 4.45074 4.42839 0.00118562 9.88991 0H29.7803C36.5214 0 42.9877 2.69078 47.7544 7.48148L48.1091 7.83796C48.3044 7.81319 48.5059 7.80093 48.7079 7.80093C48.9076 7.80102 49.1044 7.81367 49.2975 7.83796L49.6568 7.48148C54.4235 2.69071 60.8898 0 67.6309 0H90.1055C95.568 0 99.9988 4.45 100 9.93982V64.5556Z" fill="currentColor"/>
</svg>