<svg width="100" height="100" viewBox="0 0 100 100" fill="none" xmlns="http://www.w3.org/2000/svg">
<path d="M90 50C90 27.9086 72.0914 10 50 10C27.9086 10 10 27.9086 10 50C10 72.0914 27.9086 90 50 90C72.0914 90 90 72.0914 90 50ZM62.373 30.5566C64.3257 28.604 67.4907 28.604 69.4434 30.5566C71.396 32.5093 71.396 35.6743 69.4434 37.627L57.0703 50L69.4434 62.373C71.396 64.3257 71.396 67.4907 69.4434 69.4434C67.4907 71.396 64.3257 71.396 62.373 69.4434L50 57.0703L37.627 69.4434C35.6743 71.396 32.5093 71.396 30.5566 69.4434C28.604 67.4907 28.604 64.3257 30.5566 62.373L42.9297 50L30.5566 37.627C28.604 35.6743 28.604 32.5093 30.5566 30.5566C32.5093 28.604 35.6743 28.604 37.627 30.5566L50 42.9297L62.373 30.5566ZM100 50C100 77.6142 77.6142 100 50 100C22.3858 100 0 77.6142 0 50C0 22.3858 22.3858 0 50 0C77.6142 0 100 22.3858 100 50Z" fill="currentColor"/>
</svg>