<svg width="100" height="125" viewBox="0 0 100 125" fill="none" xmlns="http://www.w3.org/2000/svg">
<path d="M11.5247 28.4338C21.5733 31.5153 31.9654 33.5188 42.3803 34.7635C42.7137 34.805 42.7137 34.805 43.0539 34.8472C49.1269 35.5139 55.5194 35.1784 61.5433 34.2766C61.872 34.229 62.2007 34.1815 62.5294 34.134C72.2166 32.721 81.8127 30.478 91.2006 27.6744C92.6925 27.2559 94.4223 27.1463 95.9021 27.6645C96.4051 27.961 96.807 28.2769 97.2345 28.6773C97.4592 28.8853 97.4592 28.8853 97.6884 29.0976C99.5051 30.9867 100.025 33.1832 99.9991 35.7724C99.9129 37.6397 99.3019 39.0911 97.9831 40.3933C94.9534 42.6652 91.4346 43.8169 87.9075 45.0189C87.3892 45.1982 86.871 45.3779 86.353 45.5579C85.3013 45.9231 84.2492 46.287 83.1966 46.6497C81.1177 47.3673 79.0438 48.0993 76.9713 48.8358C76.3846 49.044 75.7974 49.251 75.2102 49.4577C70.4851 50.8203 70.4851 50.8203 66.5736 53.5092C66.0231 54.8062 66.0166 56.0071 66.0281 57.3941C66.0295 57.6304 66.031 57.8667 66.0324 58.1101C66.0702 60.713 66.3419 63.269 66.6794 65.8472C66.7138 66.1163 66.7483 66.3854 66.7837 66.6627C67.9828 75.8959 69.831 85.036 71.5508 94.1799C72.2435 97.8625 72.9334 101.546 73.6177 105.23C73.8726 106.601 74.1301 107.972 74.3899 109.343C74.5501 110.191 74.7082 111.04 74.8657 111.888C74.9385 112.278 75.0123 112.668 75.087 113.057C76.2665 119.213 76.2665 119.213 74.7179 121.919C73.6087 123.527 72.0192 124.379 70.1667 124.84C69.427 124.928 68.6954 124.956 67.951 124.962C67.7727 124.964 67.5945 124.965 67.4108 124.967C65.46 124.921 63.8973 124.3 62.4734 122.938C59.687 119.648 59.3524 114.281 58.5657 110.171C57.0979 102.528 55.508 94.9164 53.4589 87.4097C53.3774 87.1088 53.2958 86.8079 53.2118 86.4978C52.6111 84.3622 51.8414 82.3375 51.0036 80.2888C50.8433 79.8833 50.6833 79.4777 50.5246 79.0716C50.1293 79.0716 49.7341 79.0716 49.3269 79.0716C49.1668 79.4772 49.0072 79.883 48.8478 80.2888C48.7481 80.5414 48.6483 80.7941 48.5456 81.0544C44.8889 90.6151 43.2105 100.932 41.2733 110.962C40.8422 113.191 40.4112 115.42 39.9362 117.639C39.9005 117.81 39.8647 117.981 39.8278 118.157C39.34 120.388 38.3151 122.576 36.4405 123.935C34.3469 125.208 31.5239 125.178 29.1757 124.682C27.3279 123.996 25.8881 122.775 24.894 121.052C23.7185 118.284 24.5565 115.057 25.0919 112.204C25.165 111.802 25.2378 111.401 25.3103 110.999C25.4663 110.138 25.624 109.278 25.7832 108.418C26.0376 107.044 26.2872 105.668 26.5362 104.293C27.1569 100.868 27.7842 97.4451 28.4117 94.0219C29.0247 90.677 29.6349 87.3317 30.2396 83.9853C30.2815 83.7535 30.3234 83.5218 30.3666 83.283C34.4591 67.4566 34.4591 67.4566 33.0682 52.2159C31.2235 50.282 27.5547 49.7052 25.0736 48.9284C24.6549 48.7961 24.2363 48.6637 23.8177 48.5312C22.7229 48.185 21.6275 47.8404 20.5321 47.4962C18.9909 47.0116 17.4503 46.5248 15.9096 46.0382C15.0919 45.78 14.2739 45.5223 13.4558 45.2652C7.33367 43.3387 7.33367 43.3387 5.44645 42.3562C5.28409 42.2717 5.12173 42.1872 4.95445 42.1002C2.7051 40.9012 1.05684 39.7373 0.221517 37.1981C-0.394504 34.532 0.335099 32.2054 1.65875 29.8945C2.49187 28.5337 3.85112 27.7166 5.36036 27.2965C7.43255 27.0251 9.56542 27.8291 11.5247 28.4338Z" fill="currentColor"/>
<path d="M56.9827 1.83684C57.5678 2.24136 58.12 2.66159 58.6689 3.11496C58.868 3.26654 59.0672 3.41811 59.2724 3.57428C61.552 5.54813 63.1736 8.77002 63.5367 11.7893C63.5728 12.445 63.5839 13.094 63.5794 13.7507C63.578 13.9836 63.5767 14.2166 63.5753 14.4566C63.4979 17.6124 62.5584 20.1234 60.5852 22.591C60.436 22.7934 60.2869 22.9958 60.1332 23.2044C58.1961 25.5152 55.0095 27.1902 52.0387 27.5344C51.3825 27.5662 50.7323 27.5739 50.0754 27.5665C49.8442 27.5647 49.613 27.5628 49.3748 27.5609C47.619 27.5198 46.1286 27.2736 44.5361 26.4862C44.3058 26.3745 44.0754 26.2628 43.8381 26.1477C40.2228 24.2659 38.1788 21.3021 36.8447 17.4396C36.1733 14.4977 36.284 10.9548 37.5895 8.22742C37.6994 7.99331 37.8093 7.7592 37.9226 7.51799C39.6362 4.11733 42.2157 1.92811 45.7787 0.650021C49.4161 -0.500086 53.6988 -0.135762 56.9827 1.83684Z" fill="currentColor"/>
</svg>