<svg width="100" height="113" viewBox="0 0 100 113" fill="none" xmlns="http://www.w3.org/2000/svg">
<path d="M4.0643e-10 94.4556V18.0444C6.87467e-05 8.07993 8.65102 0 19.3198 0H70.8484C74.3736 0 77.6753 1.38527 80.0366 3.70526C81.9893 5.62408 85.0138 8.51081 87.8766 10.9033C90.4374 13.0433 94.3196 16.7559 96.5322 18.8994C98.7795 21.0772 100 23.969 100 26.9473L99.9945 94.4556C99.9942 104.42 91.3484 112.5 80.6802 112.5H19.3198C8.65096 112.5 -6.84072e-05 104.42 4.0643e-10 94.4556ZM70.4544 63.6787C73.5923 63.6787 76.136 66.0545 76.136 68.9852C76.136 71.9159 73.5923 74.2917 70.4544 74.2918H29.5456C26.4082 74.2913 23.864 71.9156 23.864 68.9852C23.864 66.0548 26.4082 63.6792 29.5456 63.6787H70.4544ZM70.4544 44.5771C73.5923 44.5772 76.136 46.953 76.136 49.8837C76.1348 52.8134 73.5915 55.1902 70.4544 55.1902H29.5456C26.4089 55.1897 23.8652 52.8131 23.864 49.8837C23.864 46.9533 26.4082 44.5776 29.5456 44.5771H70.4544ZM43.1837 25.4704C46.3207 25.471 48.8647 27.8471 48.8653 30.777C48.8653 33.7073 46.321 36.0829 43.1837 36.0835H29.5456C26.4082 36.083 23.864 33.7074 23.864 30.777C23.8646 27.847 26.4085 25.4709 29.5456 25.4704H43.1837ZM72.7293 24.4081C72.7293 24.9936 73.2346 25.4694 73.8612 25.4704H87.5215C85.2802 23.3126 82.2472 20.4361 80.3029 18.8113C77.5441 16.5058 74.7478 13.856 72.7293 11.8983V24.4081ZM11.3633 94.4556C11.3632 98.5587 14.9267 101.887 19.3198 101.887H80.6802C85.0728 101.886 88.6311 98.5583 88.6312 94.4556L88.6367 36.0835H73.8612C66.9588 36.0825 61.366 30.855 61.366 24.4081V10.6131H19.3198C14.9268 10.6131 11.3633 13.9414 11.3633 18.0444V94.4556Z" fill="currentColor"/>
</svg>