<svg width="100" height="100" viewBox="0 0 100 100" fill="none" xmlns="http://www.w3.org/2000/svg">
<path d="M90 76.9873C89.5145 76.7506 89.0557 76.4385 88.6523 76.0352L69.6875 57.0703L47.9102 78.8477C45.9575 80.8003 42.7925 80.8003 40.8398 78.8477L33.125 71.1328L15.8887 88.3643C17.6481 89.3951 19.6885 90 21.875 90H78.125C84.6834 90 90 84.6834 90 78.125V76.9873ZM33.75 30.3125C33.75 28.414 32.211 26.875 30.3125 26.875C28.414 26.875 26.875 28.414 26.875 30.3125C26.875 32.211 28.414 33.75 30.3125 33.75C32.211 33.75 33.75 32.211 33.75 30.3125ZM90 21.875C90 15.3166 84.6834 10 78.125 10H21.875C15.3166 10 10 15.3166 10 21.875V78.125C10 78.75 10.0583 79.3621 10.1514 79.9609L29.5898 60.5273L29.9707 60.1855C31.9346 58.5838 34.8296 58.6968 36.6602 60.5273L44.375 68.2422L66.1523 46.4648L66.5332 46.123C68.4971 44.5213 71.3921 44.6343 73.2227 46.4648L90 63.2422V21.875ZM43.75 30.3125C43.75 37.7338 37.7338 43.75 30.3125 43.75C22.8912 43.75 16.875 37.7338 16.875 30.3125C16.875 22.8912 22.8912 16.875 30.3125 16.875C37.7338 16.875 43.75 22.8912 43.75 30.3125ZM100 78.125C100 90.2062 90.2062 100 78.125 100H21.875C9.79377 100 0 90.2062 0 78.125V21.875C0 9.79377 9.79377 0 21.875 0H78.125C90.2062 0 100 9.79377 100 21.875V78.125Z" fill="currentColor"/>
</svg>