<svg width="100" height="100" viewBox="0 0 100 100" fill="none" xmlns="http://www.w3.org/2000/svg">
<path d="M90 50C90 27.9086 72.0914 10 50 10C27.9086 10 10 27.9086 10 50C10 72.0914 27.9086 90 50 90C72.0914 90 90 72.0914 90 50ZM45 72.5V50C45 47.2386 47.2386 45 50 45C52.7614 45 55 47.2386 55 50V72.5C55 75.2614 52.7614 77.5 50 77.5C47.2386 77.5 45 75.2614 45 72.5ZM45 33.3252V33.125C45 30.3636 47.2386 28.125 50 28.125C52.7614 28.125 55 30.3636 55 33.125V33.3252C54.9987 36.0855 52.7606 38.3252 50 38.3252C47.2394 38.3252 45.0013 36.0855 45 33.3252ZM100 50C100 77.6142 77.6142 100 50 100C22.3858 100 1.92844e-07 77.6142 0 50C2.38419e-06 22.3858 22.3858 1.92845e-07 50 0C77.6142 2.38419e-06 100 22.3858 100 50Z" fill="#D80E87"/>
</svg>
