<svg width="100" height="100" viewBox="0 0 100 100" fill="none" xmlns="http://www.w3.org/2000/svg">
<path d="M0 16.4875V83.5126C0.000519569 87.8991 1.64603 92.0963 4.56036 95.1847C7.47374 98.2715 11.4166 99.9994 15.5189 100H33.9694C36.7189 100 38.9478 97.6185 38.9478 94.6808C38.9478 91.7431 36.7189 89.3616 33.9694 89.3616H15.5189C14.0306 89.3609 12.6109 88.7335 11.5711 87.6318C10.533 86.5316 9.95747 85.0489 9.95696 83.5125V16.4875C9.95722 14.951 10.533 13.4686 11.5711 12.3682C12.6109 11.2665 14.0306 10.6391 15.5189 10.6384L33.9693 10.6384C36.7186 10.6384 38.9473 8.25644 38.9478 5.3192C38.9478 2.38149 36.7189 -2.56823e-07 33.9693 0L15.5189 1.72339e-06C11.4166 0.000644008 7.47374 1.72851 4.56036 4.81534C1.6461 7.90385 0.000260839 12.1008 0 16.4875ZM68.7555 79.3777C70.7436 81.4068 73.8961 81.3302 75.7954 79.2063L98.6215 53.6751C100.46 51.6193 100.46 48.3807 98.6215 46.3249L75.7954 20.7937C73.8961 18.6694 70.7437 18.5931 68.7555 20.6223C66.7686 22.6516 66.6963 26.0202 68.595 28.144L83.3798 44.6782H35.282C32.5332 44.6782 30.3046 47.0606 30.3036 49.9974C30.3036 52.9351 32.5325 55.3166 35.282 55.3166L83.3798 55.3166L68.5951 71.856C66.6961 73.98 66.7681 77.3484 68.7555 79.3777Z" fill="currentColor"/>
</svg>