<svg width="100" height="100" viewBox="0 0 100 100" fill="none" xmlns="http://www.w3.org/2000/svg">
<path fill-rule="evenodd" clip-rule="evenodd" d="M19.7863 0C23.277 0 25.6933 2.02519 26.7521 3.07129C26.7637 3.0827 26.7758 3.09408 26.7873 3.10547C28.2666 4.4757 29.6604 5.87294 31.0568 7.29785C31.3994 7.6472 31.7503 7.9988 32.1203 8.37012C32.4696 8.72064 32.8343 9.09231 33.2033 9.46777L39.5363 15.7227C41.2466 17.4125 42.8696 19.785 42.8703 22.8242C42.8702 25.8643 41.247 28.2405 39.5363 29.9307C38.9525 30.5075 38.1874 31.2869 37.4777 31.9639C37.0752 32.3712 36.8034 32.6478 36.6564 32.7959C36.5236 32.9297 36.2812 33.1776 35.9787 33.4228C35.9157 33.4739 35.862 33.5154 35.8351 33.5361C35.7931 33.5685 35.8058 33.5601 35.7863 33.5752C35.7792 33.5807 35.7609 33.5968 35.7218 33.6289C35.6252 33.7084 35.4129 33.8818 34.9894 34.2559C34.9955 34.277 35.0015 34.2998 35.009 34.3242C36.4142 37.6508 38.4196 40.915 41.673 45.0068C41.6882 45.0248 41.7078 45.0423 41.7228 45.0605C47.8317 52.4952 54.1817 58.1812 61.0968 62.5019L61.1017 62.5068C61.8022 62.9457 62.5528 63.3216 63.5109 63.7949C64.2401 64.1552 65.1693 64.6142 66.0294 65.1269C66.0391 65.1176 66.0554 65.1105 66.0685 65.0976L70.6153 60.6064C71.6319 59.6021 74.1347 57.419 77.6944 57.418C81.1196 57.418 83.516 59.4038 84.6602 60.6064L97.4297 73.2187L97.9737 73.8008C100.498 76.7779 100.082 80.5005 99.75 82.2012C99.5351 83.3025 99.2182 84.2565 98.9688 84.9189C98.8414 85.2572 98.7275 85.5402 98.6368 85.7471C98.5915 85.8502 98.5497 85.9351 98.5186 86.0019C98.503 86.0355 98.4899 86.066 98.4786 86.0898C98.4734 86.1006 98.4682 86.1104 98.4639 86.1191C98.4617 86.1237 98.4563 86.1297 98.4541 86.1338V86.1435C98.3278 86.4017 98.1771 86.6516 98.0088 86.8838L97.4395 87.54C97.4368 87.5427 97.4301 87.5496 97.4249 87.5547C97.4142 87.565 97.3954 87.5788 97.375 87.5986C97.3329 87.6397 97.272 87.7016 97.1924 87.7793C97.0314 87.9364 96.7981 88.1637 96.5147 88.4414C95.9473 88.9974 95.1755 89.7539 94.3624 90.5615C92.6579 92.2544 90.9992 93.9417 90.4395 94.5928C90.388 94.6526 90.3356 94.7121 90.2813 94.7695C86.9383 98.3013 82.8156 99.9999 77.8585 100C77.544 100 77.0023 100.002 76.4581 99.9658C68.5572 99.4639 61.4288 96.4435 56.5158 94.1221L56.4904 94.1123C42.7019 87.5172 30.6011 78.159 20.5685 66.3271L20.5529 66.3076C12.3588 56.55 6.74174 47.3582 3.00022 37.376L2.19358 35.1182C0.452279 29.9412 -0.279426 25.3804 0.0959305 20.8555L0.100813 20.8408C0.434681 16.9815 1.99778 13.6478 4.7717 10.9072L12.6818 3.09082L12.7961 2.98242C14.5134 1.38969 16.8984 0.000266148 19.7863 0ZM11.925 18.0098C10.8538 19.0686 10.3269 20.1802 10.1936 21.6728C9.95995 24.4887 10.3649 27.6621 11.8068 31.9492L12.4895 33.8594L12.4943 33.874C15.7573 42.5843 20.7143 50.8049 28.3303 59.8769L30.0617 61.8701C38.8303 71.69 49.193 79.4787 60.879 85.0713L62.6798 85.9043C66.9876 87.8337 71.9754 89.634 77.1163 89.959H77.1261C77.2763 89.9689 77.4781 89.9687 77.8585 89.9687C80.1389 89.9687 81.5418 89.3304 82.8848 87.9121C83.8278 86.8473 85.6875 84.9704 87.1885 83.4795C88.0211 82.6526 88.8082 81.8804 89.3858 81.3144C89.4497 81.2518 89.5098 81.1863 89.5684 81.1289C89.6545 80.8715 89.7447 80.5836 89.8008 80.2959C89.8302 80.1453 89.8404 80.0121 89.8506 79.8994L77.6358 67.831L73.2227 72.1992C72.7342 72.6822 70.2384 75.246 66.1183 75.2461C64.4684 75.2459 62.957 74.8336 61.5616 74.1445C61.3932 74.0613 61.2564 73.9837 61.171 73.9336L61.088 73.8838C61.0155 73.845 60.944 73.8045 60.8741 73.7617C60.4379 73.4942 59.8736 73.2068 58.9845 72.7676C58.087 72.3242 56.8856 71.7376 55.6847 70.9853C47.7085 66.0007 40.5568 59.5374 33.8615 51.3887C33.8401 51.3629 33.8131 51.3367 33.7922 51.3105C30.0737 46.6459 27.4719 42.5295 25.5949 38.0371C25.5499 37.9293 25.5082 37.8196 25.4709 37.709C25.4593 37.6748 25.4434 37.6397 25.4318 37.6055L25.3722 37.4297C25.0889 36.543 24.6447 34.9247 24.8723 32.9824C25.1051 30.9997 25.9887 29.0858 27.5988 27.4033C27.7277 27.2552 27.856 27.1438 27.9543 27.0508L27.9494 27.0459C28.0256 26.9707 28.0941 26.9073 28.1476 26.8603L29.2453 25.9102C29.3207 25.8481 29.3861 25.7935 29.4435 25.748C29.6075 25.5826 29.8469 25.3446 30.3439 24.8418L32.3771 22.8291L26.0451 16.5645C26.027 16.5466 26.0082 16.5289 25.9904 16.5107C25.6352 16.1488 25.2777 15.7905 24.9074 15.4189C24.5415 15.0518 24.1604 14.6706 23.7844 14.2871C22.3801 12.8542 21.1074 11.5746 19.7912 10.3594C19.7698 10.3396 19.7478 10.315 19.7268 10.2949L11.925 18.0098ZM66.3653 65.3232C66.3576 65.3186 66.3478 65.3106 66.336 65.3037C66.3294 65.2998 66.3202 65.2946 66.3107 65.2891C66.3374 65.3054 66.3586 65.319 66.3653 65.3232ZM35.8507 33.123C35.7589 33.2857 35.6572 33.4425 35.549 33.5947C35.6484 33.4561 35.7498 33.3025 35.8459 33.1328L35.8507 33.123Z" fill="currentColor"/>
</svg>