<svg width="100" height="100" viewBox="0 0 100 100" fill="none" xmlns="http://www.w3.org/2000/svg">
<path d="M1.0446 17.1913C-3.41021 6.77022 7.22296 -3.6913 17.2271 1.27119L93.255 38.9854C102.248 43.4465 102.248 56.5533 93.255 61.0145L17.2271 98.7287C7.2225 103.691 -3.41194 93.2302 1.0446 82.8086L14.9865 50.2062C15.0416 50.0773 15.0416 49.9283 14.9865 49.7994L1.0446 17.1913ZM11.5528 87.5136C11.5044 87.6269 11.494 87.6962 11.4912 87.7256C11.4885 87.7558 11.4915 87.781 11.4968 87.8058C11.5097 87.8639 11.5558 87.9736 11.6649 88.0809C11.7736 88.1876 11.8822 88.2305 11.9393 88.2414C11.9634 88.2457 11.9889 88.2453 12.0178 88.2414C12.0468 88.2372 12.1133 88.2249 12.2194 88.1726L77.3358 55.8683H25.0858L11.5528 87.5136ZM11.9393 11.7642C11.8821 11.7752 11.774 11.8173 11.6649 11.9247C11.5566 12.0314 11.5099 12.1359 11.4968 12.194C11.4913 12.219 11.4886 12.2442 11.4912 12.2743C11.4938 12.3031 11.5048 12.3732 11.5528 12.4863L25.0858 44.1316H77.3358L12.2194 11.833C12.1121 11.78 12.0467 11.7626 12.0178 11.7585C11.9887 11.7546 11.9635 11.7598 11.9393 11.7642Z" fill="currentColor"/>
</svg>