<svg width="100" height="100" viewBox="0 0 100 100" fill="none" xmlns="http://www.w3.org/2000/svg">
<path d="M0 52.6468C0.00031459 26.4506 21.4249 5.29363 47.7541 5.29357C50.5151 5.29357 52.7535 7.53266 52.7541 10.2935C52.7541 13.0549 50.5155 15.2935 47.7541 15.2935C26.8587 15.2936 10.0003 32.0621 10 52.6468C10 73.2317 26.8585 90 47.7541 90.0001C68.6496 90.0001 85.5081 73.2318 85.5081 52.6468C85.5084 49.8857 87.747 47.6469 90.5081 47.6468C93.2694 47.6468 95.5078 49.8856 95.5081 52.6468C95.5081 78.8432 74.0834 100 47.7541 100C21.4247 99.9999 0 78.8432 0 52.6468ZM21.377 52.6468C21.3773 38.146 33.2312 26.4702 47.7541 26.4702C50.5152 26.4702 52.7536 28.7091 52.7541 31.4702C52.7541 34.2316 50.5155 36.4701 47.7541 36.4701C38.665 36.4702 31.3774 43.7574 31.3771 52.6468C31.3771 61.5364 38.6648 68.8234 47.7541 68.8234C56.8434 68.8234 64.1311 61.5364 64.1311 52.6468C64.1314 49.8857 66.3699 47.6469 69.1311 47.6468C71.8923 47.6468 74.1308 49.8856 74.1311 52.6468C74.1311 67.1479 62.2772 78.8234 47.7541 78.8234C33.231 78.8233 21.377 67.1478 21.377 52.6468ZM76.8948 0.99184C78.1964 0.0207506 79.9075 -0.26597 81.4749 0.259423C83.2649 0.859868 84.5648 2.41899 84.8343 4.28772L86.1868 13.6724L95.6986 15.025C97.5791 15.2911 99.1489 16.601 99.7464 18.4038C100.343 20.2055 99.8687 22.1898 98.5208 23.5259L81.514 40.3715C80.1781 41.6948 78.2115 42.1573 76.426 41.5678L67.9885 38.7797L51.2746 55.347C49.3132 57.2899 46.1478 57.2733 44.2043 55.3128C42.2613 53.3515 42.2731 50.186 44.2336 48.2425L60.9182 31.7094L58.1398 23.4429C57.5317 21.6355 58.0062 19.6388 59.3606 18.2964L76.3674 1.45082L76.8948 0.99184ZM68.6086 23.1987L70.5959 29.1118L76.6507 31.1088L84.3216 23.5112L81.0745 23.0522C78.8751 22.741 77.1446 21.0171 76.8264 18.8189L76.3528 15.5328L68.6086 23.1987Z" fill="currentColor"/>
</svg>