<svg width="100" height="78" viewBox="0 0 100 78" fill="none" xmlns="http://www.w3.org/2000/svg">
<path d="M56.6116 0C65.3044 0 72.4559 7.43139 72.4652 16.7375L72.4699 18.6672L88.0138 11.1363C89.9361 10.1076 92.8513 9.18786 95.7072 10.7504C98.4426 12.2473 99.44 15.0664 99.742 17.3926L99.8326 18.3523L99.8421 18.652L99.9993 60.7445C100.035 63.8233 98.7501 67.0696 95.6453 68.5547C92.9976 69.8205 90.2491 69.1834 88.2092 67.9859L72.4747 59.7238L72.4652 61.2828C72.4456 70.5794 65.298 78 56.6116 78H15.8535C7.15518 78 0 70.5567 0 61.2422V16.7578C0 7.44326 7.15518 0 15.8535 0H56.6116ZM72.5033 30.0727L72.5604 46.4039V46.4598L72.5462 48.166L90.229 57.4539L90.0956 21.5516L72.5033 30.0727ZM49.2946 17.3316C51.9881 17.3316 54.1718 19.6605 54.1726 22.5316C54.1726 25.4035 51.9887 27.7316 49.2946 27.7316H35.8801C33.1861 27.7315 31.0021 25.4035 31.0021 22.5316C31.0029 19.6606 33.1866 17.3317 35.8801 17.3316H49.2946ZM9.75603 61.2422C9.75603 64.6915 12.4287 67.6 15.8535 67.6H56.6116C60.0365 67.6 62.7092 64.6915 62.7092 61.2422V61.2066L62.8044 46.4395L62.7092 16.773V16.7578C62.7092 13.3084 60.0365 10.4 56.6116 10.4H15.8535C12.4287 10.4 9.75603 13.3084 9.75603 16.7578V61.2422Z" fill="currentColor"/>
</svg>