<svg width="100" height="90" viewBox="0 0 100 90" fill="none" xmlns="http://www.w3.org/2000/svg">
<path d="M31.2698 10.3613C39.8688 -3.4538 60.1312 -3.45377 68.7302 10.3613C68.7744 10.4325 68.8165 10.5078 68.8571 10.5811L97.2063 61.6992C99.104 64.8198 100.92 69.3872 99.4816 74.2871C96.8078 83.3924 88.3399 90 78.3492 90H21.6508C11.6601 90 3.19219 83.3924 0.518362 74.2871C-0.920439 69.3872 0.896015 64.8198 2.79372 61.6992L31.1429 10.5811L31.2698 10.3613ZM60.1903 15.5713C55.493 8.14435 44.5008 8.14288 39.8048 15.5713L11.5387 66.5479C11.498 66.6212 11.456 66.6964 11.4117 66.7676C10.056 68.9463 9.82928 70.5037 10.1129 71.4697C11.552 76.3699 16.1524 80 21.6508 80H78.3492C83.8475 80 88.448 76.3699 89.8871 71.4697C90.1707 70.5037 89.944 68.9463 88.5883 66.7676C88.544 66.6964 88.502 66.6212 88.4613 66.5479L60.1903 15.5713ZM45.0001 66.3233V66.1231C45.0005 63.362 47.2389 61.1231 50 61.1231C52.7611 61.1231 54.9995 63.362 54.9999 66.1231V66.3233C54.9987 69.0836 52.7606 71.3233 50 71.3233C47.2394 71.3232 45.0013 69.0836 45.0001 66.3233ZM45.0001 49.502V27.0703C45.0012 24.3098 47.2393 22.0703 50 22.0703C52.7607 22.0703 54.9988 24.3098 54.9999 27.0703V49.502C54.9989 52.2626 52.7608 54.502 50 54.502C47.2392 54.502 45.0011 52.2626 45.0001 49.502Z" fill="#D80E87"/>
</svg>
