<svg width="100" height="74" viewBox="0 0 100 74" fill="none" xmlns="http://www.w3.org/2000/svg">
<path d="M0 3.08333C0 1.38046 1.39911 0 3.125 0H96.875C98.6009 0 100 1.38046 100 3.08333V9.25C100 10.9529 98.6009 12.3333 96.875 12.3333H3.125C1.39911 12.3333 0 10.9529 0 9.25V3.08333Z" fill="#D80E87"/>
<path d="M0 33.9167C0 32.2138 1.39911 30.8333 3.125 30.8333H96.875C98.6009 30.8333 100 32.2138 100 33.9167V40.0833C100 41.7862 98.6009 43.1667 96.875 43.1667H3.125C1.39911 43.1667 0 41.7862 0 40.0833V33.9167Z" fill="#D80E87"/>
<path d="M0 64.75C0 63.0471 1.39911 61.6667 3.125 61.6667H96.875C98.6009 61.6667 100 63.0471 100 64.75V70.9167C100 72.6195 98.6009 74 96.875 74H3.125C1.39911 74 0 72.6195 0 70.9167V64.75Z" fill="#D80E87"/>
</svg>