<svg width="100" height="100" viewBox="0 0 100 100" fill="none" xmlns="http://www.w3.org/2000/svg">
<path d="M87.739 1.1598C89.2732 -0.3866 91.76 -0.3866 93.2942 1.1598L98.8494 6.75922C100.384 8.30562 100.384 10.8122 98.8494 12.3586L59.8788 51.6396L95.5961 87.6414C97.1301 89.1877 97.1299 91.6944 95.5961 93.2408L90.0409 98.8402C88.5067 100.387 86.0199 100.387 84.4857 98.8402L48.7685 62.8384L15.5143 96.3576C13.9801 97.9037 11.4932 97.9039 9.9591 96.3576L4.40393 90.7582C2.86985 89.2119 2.87003 86.7052 4.40393 85.1588L37.6582 51.6396L1.15063 14.8412C-0.383545 13.2948 -0.383545 10.7882 1.15063 9.24183L6.7058 3.64241C8.24 2.09633 10.7269 2.09612 12.261 3.64241L48.7685 40.4408L87.739 1.1598Z" fill="#D80E87"/>
</svg>