<svg width="100" height="100" viewBox="0 0 100 100" fill="none" xmlns="http://www.w3.org/2000/svg">
<path d="M83.1615 0H16.8385C7.53883 0 0 7.53885 0 16.8385V83.1615C0 92.4612 7.53883 100 16.8385 100H83.1615C92.4611 100 100 92.4612 100 83.1615V16.8385C100 7.53885 92.4611 0 83.1615 0Z" fill="#263A94"/>
<path d="M51.5464 84.1924V43.299C51.5464 42.6117 51.7182 42.4399 52.4055 42.268C57.3883 41.2371 62.5429 40.378 67.6976 39.8625C70.9622 39.6907 74.2268 39.1753 77.3196 38.3162C79.3814 37.6289 81.4433 36.9416 83.5051 36.2543C83.677 36.2543 83.8488 36.2543 84.1924 36.0825V52.7491C84.1924 60.4811 84.1924 68.2131 84.1924 75.945C84.1924 76.8041 83.8488 77.4914 83.1615 77.8351C80.2405 79.5533 76.9759 80.5842 73.7113 81.0997C70.2749 81.6151 66.6666 81.9588 63.2302 82.4742C59.7938 82.9897 56.3574 83.677 52.9209 84.1924H51.5464ZM55.3265 79.5533C56.3574 79.2096 57.2165 79.0378 58.0756 78.866C61.1684 78.3505 64.2612 77.6632 67.354 77.1478C70.7904 76.8041 74.2268 75.945 77.4914 74.9141C77.6632 74.9141 78.0068 74.7423 78.0068 74.5705V71.6495C73.7113 73.1959 69.4158 74.2268 64.7766 74.7423C61.6839 75.0859 58.7629 75.945 55.6701 76.4605C55.3264 76.4605 55.1546 76.6323 55.1546 76.9759C55.1546 77.8351 55.1546 78.6942 55.1546 79.5533H55.3265ZM78.0068 42.7835L76.6323 43.299C72.6804 44.8454 68.3849 45.3608 64.2611 45.8763C61.3402 46.2199 58.4192 46.9072 55.6701 47.5945C55.4983 47.5945 55.3265 47.7663 55.3265 48.11V50.8591C55.3265 50.8591 55.4983 50.8591 55.6701 50.8591C59.9656 49.6564 64.2612 48.7972 68.7285 48.2818C71.8213 47.9381 74.7423 47.2509 77.6632 46.2199C78.0069 46.2199 78.3505 45.8763 78.1787 45.5326C78.1787 44.6735 78.1787 43.8144 78.1787 42.9553L78.0068 42.7835ZM78.0068 65.8076L77.3196 66.1512C74.055 67.354 70.6186 68.2131 67.1821 68.5567C63.2302 68.9003 59.4501 69.5876 55.6701 70.6186C55.4983 70.6186 55.3265 70.9622 55.3265 71.134V73.8832C55.3265 73.8832 55.6701 73.8832 55.8419 73.8832C60.1374 72.6804 64.6048 71.8213 69.0722 71.3058C71.9931 70.9622 74.7423 70.2749 77.4914 69.244C77.835 69.244 78.1787 68.9003 78.0068 68.5567C78.0068 67.6976 78.0068 66.8385 78.0068 65.9794V65.8076ZM55.8419 56.5292C57.9038 55.8419 59.7938 55.3265 61.8557 54.9828C64.7766 54.4674 67.6976 54.2955 70.4467 53.6082C72.8522 53.0928 75.0859 52.4055 77.4914 51.89C77.6632 51.89 78.0068 51.5464 78.0068 51.5464C78.0068 50.5155 78.0068 49.6564 78.0068 48.6254C76.6323 49.1409 75.0859 49.6564 73.5395 50C70.4467 51.0309 67.0103 51.2028 63.7457 51.7182C60.9966 52.2337 58.4192 52.7491 55.6701 53.2646C55.3264 53.2646 55.1546 53.2646 55.1546 53.7801C55.1546 54.6392 55.1546 55.4983 55.1546 56.5292H55.8419ZM55.3265 62.1993C55.4983 62.1993 55.6701 62.1993 55.8419 62.1993C60.3093 60.9966 64.7766 60.1375 69.4158 59.622C72.1649 59.2784 74.9141 58.5911 77.6632 57.5601C77.8351 57.5601 78.1787 57.2165 78.1787 57.0447V54.2955C74.055 55.8419 69.5876 56.8729 65.1203 57.2165C62.0275 57.5601 59.1065 58.4192 56.0137 58.9347C55.6701 58.9347 55.4983 59.1065 55.4983 59.622C55.4983 60.4811 55.4983 61.3402 55.4983 62.1993H55.3265Z" fill="white"/>
<path d="M48.6254 84.0206C47.2508 83.8488 46.0481 83.5052 44.8454 83.3333C39.8625 82.646 34.7079 81.9588 29.7251 81.2715C25.4295 80.9278 21.4777 79.7251 17.5258 77.8351C16.4949 77.4914 15.9794 76.4605 15.9794 75.4296C15.9794 66.1512 15.9794 56.8729 15.9794 47.5945C15.9794 43.9863 15.9794 40.2062 15.9794 36.5979V35.9107C16.8385 36.2543 17.5258 36.5979 18.2131 36.7698C22.3368 38.3162 26.6323 39.1753 31.0997 39.6907C35.9107 40.2062 40.8935 41.0653 45.7045 41.7526C46.5636 41.7526 47.4227 42.0962 48.2818 42.268C48.6254 42.268 48.7972 42.4399 48.7972 42.7835V83.677C48.7972 83.677 48.7972 83.8488 48.7972 84.0206H48.6254ZM35.3952 58.2474C36.5979 56.8729 37.4571 55.3265 38.1443 53.6082C39.1753 50.8591 38.8316 48.2818 36.5979 46.2199C35.9106 45.7045 35.2234 45.189 34.3643 45.0172C33.677 44.6735 33.3333 45.0172 33.3333 45.7045C33.3333 46.7354 33.3333 47.7663 33.1615 48.6254C33.1615 50 32.8178 51.2027 31.4433 52.0619C29.7251 53.2646 28.1787 54.6392 26.8041 56.1856C25.945 57.0447 25.0859 57.9038 24.2268 58.7629C24.2268 58.9347 23.8832 59.1065 23.5395 59.1065C22.165 59.1065 20.7904 59.1065 19.4158 59.1065C18.3849 59.1065 18.5567 58.7629 18.0412 59.9656C17.0103 63.0584 16.8385 66.4948 17.6976 69.5876C17.6976 70.1031 18.213 70.2749 18.5567 70.2749C19.7594 70.2749 21.134 70.2749 22.3368 70.2749C22.6804 70.2749 22.8522 70.4467 23.024 70.6186C23.7113 71.3058 24.2268 72.165 24.7423 72.8522C26.2886 74.5705 28.0068 76.1168 30.5842 75.945C31.0996 75.945 31.4433 75.945 31.9588 75.945C32.3024 75.945 32.6461 75.945 32.9897 76.1168C34.0206 76.6323 35.2234 76.8041 36.2543 76.6323C37.457 76.6323 38.3161 75.7732 38.488 74.7423C38.488 74.5704 38.6598 74.3986 39.0034 74.2268C40.5498 73.8832 41.0653 72.8522 41.4089 71.4777C41.4089 71.3058 41.4089 71.134 41.7525 70.9622C42.7835 70.4467 43.4708 69.0722 43.1271 67.8694C43.1271 67.6976 43.1272 67.354 43.299 67.1821C44.5017 66.1512 44.6735 64.2612 43.6426 63.0584C43.1271 62.3711 42.4399 61.8557 41.5808 61.3402C39.5189 59.7938 37.2852 58.7629 34.8797 58.0756L35.3952 58.2474Z" fill="white"/>
<path d="M63.402 32.3024C63.2302 33.677 62.8865 35.3952 62.5429 37.1134C62.5429 37.457 62.3711 37.6289 62.0275 37.6289L50.8591 39.6907C50.6873 39.6907 50.5155 39.6907 50.1718 39.6907C46.2199 39.0034 42.268 38.3162 38.1443 37.6289C37.9725 37.6289 37.8006 37.457 37.6288 37.1134C36.9415 31.0997 38.1443 25.4296 41.9244 20.6186C43.6426 18.2131 46.3917 16.4948 49.3127 15.9794C52.4055 15.4639 55.6701 16.4948 57.9038 18.5567C60.6529 21.134 62.5429 24.5704 62.8866 28.3505C63.0584 29.5533 63.0584 30.756 63.2302 32.3024H63.402ZM45.7044 33.8488C46.0481 35.567 48.1099 37.457 49.4845 37.6289C51.3745 37.9725 53.2646 37.1134 54.4673 35.567C51.2027 36.2543 48.2818 36.2543 45.7044 33.677V33.8488ZM57.5601 29.3814C57.5601 29.0378 57.5601 28.866 57.5601 28.5223C57.5601 28.0069 57.2164 27.4914 56.5292 27.4914C56.0137 27.4914 55.4983 27.6632 55.3264 28.1787C54.6392 29.2096 54.4673 30.4124 54.9828 31.4433C54.9828 31.9588 55.67 32.3024 56.3573 32.1306C56.5292 32.1306 56.8728 31.9588 56.8728 31.7869C57.3883 31.0997 57.7319 30.2405 57.7319 29.3814H57.5601ZM46.3917 28.1787C46.3917 27.8351 46.3917 27.4914 46.3917 27.3196C46.3917 26.8041 46.0481 26.2887 45.3608 26.2887C44.8453 26.2887 44.3299 26.4605 43.9862 26.9759C43.2989 27.8351 43.1271 29.0378 43.6426 30.0687C43.6426 30.756 44.3299 31.0997 45.0172 30.9278C45.3608 30.9278 45.5326 30.756 45.7044 30.4124C46.2199 29.7251 46.3917 29.0378 46.3917 28.1787Z" fill="white"/>
<path d="M42.6116 68.5567C42.6116 69.4158 42.0962 70.2749 41.2371 70.4467C40.0343 70.9622 38.8316 70.9622 37.6288 70.4467C35.7388 69.7595 34.0206 68.9003 32.3024 68.2131C31.9587 68.0412 31.4433 67.6976 31.6151 67.1821C31.6151 66.6667 32.4742 65.8076 32.9897 65.8076C32.9897 65.8076 33.3333 65.8076 33.5051 65.9794C35.567 66.8385 37.6289 67.6976 39.8625 68.5567C40.8935 68.5567 41.9244 68.7285 42.7835 68.5567H42.6116Z" fill="white"/>
<path d="M31.0996 68.7285C34.1924 70.2749 37.1134 72.165 40.8934 71.6495C40.7216 72.5086 40.2061 73.1959 39.1752 73.3677C38.3161 73.3677 37.457 73.3677 36.5979 73.3677C34.7079 72.6804 32.9897 71.8213 31.0996 70.9622C30.0687 70.4467 30.0687 69.7595 31.0996 68.9003V68.7285Z" fill="white"/>
<path d="M37.9725 74.7423C37.8007 75.4296 37.457 75.945 36.5979 75.7732C35.9106 75.7732 35.0516 75.7732 34.3643 75.4296C32.9897 74.7423 31.4433 74.055 30.0687 73.1959C29.7251 73.1959 29.5533 72.6804 29.7251 72.3368C29.8969 71.9931 30.0687 71.8213 30.5842 71.9931C32.3024 72.8522 34.1924 73.7113 35.9107 74.3986C36.4261 74.3986 37.1134 74.7423 37.6289 74.7423H37.9725Z" fill="white"/>
<path d="M34.5361 46.0481C36.0825 46.5636 37.6288 48.6254 37.6288 50.5155C37.6288 52.2337 37.1134 53.9519 36.0825 55.3265C35.567 56.1856 34.8797 57.0447 34.3642 57.9038C34.1924 58.0756 34.0206 58.4192 34.1924 58.7629C34.1924 59.1065 34.536 59.2784 34.8797 59.4502C37.8006 60.1375 40.5498 61.6838 42.9553 63.5739C43.6426 64.0893 43.9862 64.9485 43.8144 65.8076C43.4708 66.8385 42.6117 67.354 41.5808 67.5258C40.8935 67.5258 40.2062 67.5258 39.5189 67.354C37.8007 66.6667 36.0825 65.9794 34.3642 65.2921C34.0206 65.2921 33.5051 64.7766 33.5051 64.433C33.5051 63.7457 33.8488 63.2302 34.3642 63.0584C35.0515 62.7148 35.7388 62.7148 36.4261 63.0584C37.6289 63.5739 38.6598 64.0894 39.6907 64.6048L40.2062 63.9175C38.8316 62.8866 37.2852 62.1993 35.7388 62.0275C34.1924 61.6839 32.646 62.7148 32.3024 64.433C32.3024 64.433 32.3024 64.6048 32.3024 64.7766C32.3024 64.9485 32.1306 65.2921 31.7869 65.2921C30.9278 65.8076 30.2405 66.6667 30.2405 67.8694C30.2405 68.0412 30.2405 68.3849 29.8969 68.5567C29.2096 69.244 29.0378 70.4467 29.3814 71.3058C28.866 71.9931 28.1787 72.6804 28.6942 73.5395C29.2096 74.2268 29.7251 74.7423 30.2405 75.2577C29.0378 75.2577 28.0068 74.7423 27.3196 74.055C25.945 73.0241 24.9141 71.6495 23.8831 70.1031C23.8831 69.7594 23.3677 69.5876 23.024 69.5876C21.8213 69.5876 20.4467 69.5876 19.244 69.5876C19.0722 69.5876 18.9003 69.4158 18.7285 69.244C18.0412 66.323 18.0412 63.4021 19.0722 60.6529C20.2749 60.6529 21.3058 60.6529 22.3368 60.6529C23.5395 60.8247 24.7422 60.4811 25.4295 59.4502C27.1477 57.3883 28.866 55.3265 31.0996 53.9519C33.1615 52.5773 33.8488 50.6873 34.0206 48.4536V46.5636L34.5361 46.0481Z" fill="white"/>
</svg>