<svg width="100" height="100" viewBox="0 0 100 100" fill="none" xmlns="http://www.w3.org/2000/svg">
<path d="M0 78.125V21.875C0 9.7938 9.7938 0 21.875 0H44.375C47.1364 2.57704e-06 49.375 2.23858 49.375 5C49.375 7.76142 47.1364 10 44.375 10H21.875C15.3166 10 10 15.3167 10 21.875V78.125C10 84.6833 15.3166 90 21.875 90H78.125C84.6834 90 90 84.6833 90 78.125V55.625C90 52.8636 92.2386 50.625 95 50.625C97.7614 50.625 100 52.8636 100 55.625V78.125C100 90.2062 90.2062 100 78.125 100H21.875C9.7938 100 0 90.2062 0 78.125ZM100 30.3125C100 33.0739 97.7614 35.3125 95 35.3125C92.2386 35.3125 90 33.0739 90 30.3125V17.0654L50.7178 56.3477C48.7652 58.299 45.5997 58.2994 43.6475 56.3477C41.6954 54.3954 41.6961 51.23 43.6475 49.2773L82.9297 10H66.8701C64.1098 9.99886 61.8703 7.76064 61.8701 5C61.8708 2.23994 64.1101 0.00114544 66.8701 0H95C96.326 -1.22981e-06 97.5975 0.527211 98.5352 1.46484C99.4728 2.40252 100 3.67392 100 5V30.3125Z" fill="currentColor"/>
</svg>