<svg width="100" height="24" viewBox="0 0 100 24" fill="none" xmlns="http://www.w3.org/2000/svg">
<path d="M56.7253 17.8647H55.1987C55.036 17.8647 54.9042 17.9981 54.9042 18.1628V23.6886C54.9042 23.8532 55.036 23.9867 55.1987 23.9867H56.7253C56.8879 23.9867 57.0198 23.8532 57.0198 23.6886V18.1628C57.0198 17.9981 56.8879 17.8647 56.7253 17.8647Z" fill="#F33EAA"/>
<path d="M53.6521 17.8647H52.1256C51.9629 17.8647 51.831 17.9981 51.831 18.1628V23.6886C51.831 23.8532 51.9629 23.9867 52.1256 23.9867H53.6521C53.8148 23.9867 53.9467 23.8532 53.9467 23.6886V18.1628C53.9467 17.9981 53.8148 17.8647 53.6521 17.8647Z" fill="#F33EAA"/>
<path d="M28.6321 0.928299H30.0582C30.2423 0.928299 30.393 1.08076 30.393 1.26709V19.5281C30.393 19.6738 30.5101 19.7924 30.6541 19.7924H45.32V21.8489H28.5585C28.4145 21.8489 28.2973 21.7303 28.2973 21.5846V1.26709C28.2973 1.08076 28.4446 0.928299 28.6321 0.928299Z" fill="black"/>
<path d="M17.7591 0.935075C17.7591 0.935075 7.67942 0.931687 5.72107 0.931687C5.53695 0.931687 5.393 1.08753 5.393 1.27387V21.5135C5.393 21.7032 5.54364 21.8557 5.73111 21.8557H7.09024C7.2777 21.8557 7.42835 21.7032 7.42835 21.5135V12.7455C7.42835 12.61 7.53882 12.4982 7.67272 12.4982H17.6453C20.2966 12.4982 23.3764 10.4315 23.3764 6.61667C23.3764 2.1378 19.6538 0.931687 17.7591 0.931687V0.935075ZM17.672 10.3773H7.69281C7.5589 10.3773 7.45178 10.2689 7.45178 10.1334L7.43504 3.2897C7.43504 3.15418 7.54217 3.04577 7.67607 3.04577H17.8361C18.7198 3.04577 21.2941 3.98762 21.2941 6.71153C21.2941 9.43544 18.6361 10.3773 17.672 10.3773Z" fill="black"/>
<path d="M71.977 1.13496C71.9234 1.00961 71.8029 0.928299 71.669 0.928299H70.6647C70.5308 0.928299 70.4103 1.00961 70.3567 1.13496L61.8471 21.3814C61.7534 21.605 61.9141 21.8523 62.1551 21.8523H63.6782C63.8121 21.8523 63.9327 21.771 63.9829 21.649L65.6533 17.7529C65.6902 17.6682 65.7705 17.614 65.8642 17.614H76.4594C76.5498 17.614 76.6335 17.6682 76.6703 17.7529L78.3408 21.649C78.3943 21.771 78.5149 21.8523 78.6454 21.8523H80.1686C80.4096 21.8523 80.5703 21.605 80.4765 21.3814L71.977 1.13496ZM66.9455 15.4863C66.7815 15.4863 66.671 15.3169 66.7346 15.1645L70.9593 5.18357C71.0396 4.99723 71.3007 4.99723 71.3811 5.18357L75.6058 15.1645C75.6694 15.3169 75.5589 15.4863 75.3949 15.4863H66.9455Z" fill="black"/>
<path d="M97.8239 1.49409H96.2974C96.1347 1.49409 96.0028 1.62757 96.0028 1.79223V21.6084C96.0028 21.773 96.1347 21.9065 96.2974 21.9065H97.8239C97.9866 21.9065 98.1185 21.773 98.1185 21.6084V1.79223C98.1185 1.62757 97.9866 1.49409 97.8239 1.49409Z" fill="black"/>
<path d="M99.9429 0.623383L97.5192 4.87526C97.3619 5.15307 96.9669 5.15307 96.8062 4.87526L94.3825 0.623383C94.2252 0.345571 94.4227 0 94.7374 0H99.5881C99.9061 0 100.104 0.345571 99.9429 0.623383Z" fill="#F33EAA"/>
<path d="M68.3917 14.2633L70.8153 10.0114C70.9727 9.73358 71.3677 9.73358 71.5284 10.0114L73.9521 14.2633C74.1094 14.5411 73.9119 14.8867 73.5972 14.8867H68.7465C68.4285 14.8867 68.231 14.5411 68.3917 14.2633Z" fill="#F33EAA"/>
<path d="M45.9794 17.8952L50.4887 20.531C50.7833 20.7038 50.7833 21.134 50.4887 21.3034L45.9794 23.9393C45.6848 24.1121 45.3166 23.8952 45.3166 23.553V18.2848C45.3166 17.9426 45.6848 17.7258 45.9794 17.8985V17.8952Z" fill="#F33EAA"/>
<path d="M4.73017 9.60484L0.220942 6.96902C-0.0736474 6.79623 -0.0736474 6.36596 0.220942 6.19656L4.73017 3.56074C5.02476 3.38795 5.393 3.60478 5.393 3.94696V9.21523C5.393 9.55741 5.02476 9.77424 4.73017 9.60145V9.60484Z" fill="#F33EAA"/>
</svg>