<svg width="100" height="30" viewBox="0 0 100 30" fill="none" xmlns="http://www.w3.org/2000/svg">
<path d="M53.6769 9.76974H52.8423C52.7534 9.76974 52.6812 9.84274 52.6812 9.93279V12.9547C52.6812 13.0447 52.7534 13.1177 52.8423 13.1177H53.6769C53.7658 13.1177 53.838 13.0447 53.838 12.9547V9.93279C53.838 9.84274 53.7658 9.76974 53.6769 9.76974Z" fill="#F33EAA"/>
<path d="M51.9967 9.76974H51.1621C51.0732 9.76974 51.0011 9.84274 51.0011 9.93279V12.9547C51.0011 13.0447 51.0732 13.1177 51.1621 13.1177H51.9967C52.0857 13.1177 52.1578 13.0447 52.1578 12.9547V9.93279C52.1578 9.84274 52.0857 9.76974 51.9967 9.76974Z" fill="#F33EAA"/>
<path d="M38.3176 0.507663H39.0972C39.1979 0.507663 39.2803 0.591039 39.2803 0.692942V10.6795C39.2803 10.7591 39.3443 10.824 39.423 10.824H47.4413V11.9486H38.2773C38.1986 11.9486 38.1345 11.8838 38.1345 11.8041V0.692942C38.1345 0.591039 38.2151 0.507663 38.3176 0.507663Z" fill="black"/>
<path d="M32.373 0.511369C32.373 0.511369 26.8621 0.509516 25.7914 0.509516C25.6908 0.509516 25.6121 0.594744 25.6121 0.696647V11.7652C25.6121 11.8689 25.6944 11.9523 25.7969 11.9523H26.54C26.6425 11.9523 26.7248 11.8689 26.7248 11.7652V6.97018C26.7248 6.89607 26.7852 6.83493 26.8585 6.83493H32.3107C33.7603 6.83493 35.4441 5.70473 35.4441 3.61849C35.4441 1.16911 33.4089 0.509516 32.373 0.509516V0.511369ZM32.3254 5.67508H26.8694C26.7962 5.67508 26.7377 5.61579 26.7377 5.54168L26.7285 1.79906C26.7285 1.72494 26.7871 1.66565 26.8603 1.66565H32.415C32.8982 1.66565 34.3057 2.18073 34.3057 3.67037C34.3057 5.16001 32.8525 5.67508 32.3254 5.67508Z" fill="black"/>
<path d="M62.0154 0.620683C61.9862 0.55213 61.9203 0.507663 61.8471 0.507663H61.298C61.2248 0.507663 61.1589 0.55213 61.1296 0.620683L56.4772 11.6929C56.4259 11.8152 56.5138 11.9505 56.6455 11.9505H57.4783C57.5515 11.9505 57.6174 11.906 57.6448 11.8393L58.5581 9.7086C58.5783 9.66228 58.6222 9.63263 58.6734 9.63263H64.4661C64.5155 9.63263 64.5613 9.66228 64.5814 9.7086L65.4947 11.8393C65.524 11.906 65.5899 11.9505 65.6613 11.9505H66.494C66.6258 11.9505 66.7137 11.8152 66.6624 11.6929L62.0154 0.620683ZM59.2646 8.46908C59.1749 8.46908 59.1145 8.37644 59.1493 8.29307L61.4591 2.83476C61.503 2.73286 61.6457 2.73286 61.6897 2.83476L63.9994 8.29307C64.0342 8.37644 63.9738 8.46908 63.8841 8.46908H59.2646Z" fill="black"/>
<path d="M76.1467 0.817079H75.3121C75.2232 0.817079 75.151 0.890076 75.151 0.980124V11.8171C75.151 11.9071 75.2232 11.9801 75.3121 11.9801H76.1467C76.2356 11.9801 76.3078 11.9071 76.3078 11.8171V0.980124C76.3078 0.890076 76.2356 0.817079 76.1467 0.817079Z" fill="black"/>
<path d="M77.3052 0.340913L75.9801 2.66616C75.8941 2.81809 75.6782 2.81809 75.5903 2.66616L74.2652 0.340913C74.1792 0.188984 74.2872 0 74.4592 0H77.1112C77.2851 0 77.3931 0.188984 77.3052 0.340913Z" fill="#F33EAA"/>
<path d="M60.0553 7.80023L61.3804 5.47498C61.4664 5.32305 61.6823 5.32305 61.7702 5.47498L63.0953 7.80023C63.1813 7.95216 63.0733 8.14114 62.9013 8.14114H60.2493C60.0754 8.14114 59.9674 7.95216 60.0553 7.80023Z" fill="#F33EAA"/>
<path d="M47.8018 9.78642L50.2672 11.2279C50.4282 11.3224 50.4282 11.5577 50.2672 11.6503L47.8018 13.0918C47.6408 13.1863 47.4394 13.0677 47.4394 12.8806V9.99949C47.4394 9.81235 47.6408 9.69378 47.8018 9.78827V9.78642Z" fill="#F33EAA"/>
<path d="M25.2497 5.25265L22.7843 3.81118C22.6233 3.71669 22.6233 3.48138 22.7843 3.38875L25.2497 1.94728C25.4107 1.85279 25.6121 1.97136 25.6121 2.1585V5.03958C25.6121 5.22671 25.4107 5.34529 25.2497 5.2508V5.25265Z" fill="#F33EAA"/>
<path d="M47.5917 20.1535H47.2789V21.1287H47.5917V20.1535Z" fill="black"/>
<path d="M23.9759 18.75L23.6427 19.4862L23.9221 19.6128L24.2553 18.8766L23.9759 18.75Z" fill="black"/>
<path d="M5.80053 19.3515L5.45129 18.9899L5.2387 18.7712V18.7681L5.01701 18.9808V18.9838L4.65865 19.3332L4.87123 19.552L5.22959 19.2026L5.57884 19.5611L5.80053 19.3515Z" fill="black"/>
<path d="M42.7161 25.4108L42.3829 26.147L42.6623 26.2736L42.9955 25.5374L42.7161 25.4108Z" fill="black"/>
<path d="M2.82131 20.9768C2.82131 21.4751 2.41436 21.8822 1.9163 21.8822H0.376579V23.3162H0V20.0715H1.91934C2.4174 20.0715 2.82434 20.4786 2.82434 20.9768H2.82131ZM2.44169 20.9768C2.44169 20.6852 2.20481 20.4482 1.91326 20.4482H0.373542V21.5024H1.91326C2.20481 21.5024 2.44169 21.2655 2.44169 20.9738V20.9768Z" fill="#F33EAA"/>
<path d="M6.84524 21.6938C6.84524 22.5901 6.11637 23.3162 5.22352 23.3162C4.33066 23.3162 3.6018 22.587 3.6018 21.6938C3.6018 20.8006 4.33066 20.0715 5.22352 20.0715C6.11637 20.0715 6.84524 20.8006 6.84524 21.6938ZM6.46562 21.6938C6.46562 21.0072 5.90683 20.4482 5.22048 20.4482C4.53413 20.4482 3.97534 21.0072 3.97534 21.6938C3.97534 22.3804 4.53413 22.9395 5.22048 22.9395C5.90683 22.9395 6.46562 22.3804 6.46562 21.6938Z" fill="black"/>
<path d="M8.15415 22.9395H10.6019V23.3162H7.77757V20.0715H8.15719V22.9395H8.15415Z" fill="black"/>
<path d="M11.6102 20.0715H14.4345V20.4513H11.9868V21.5055H13.569V21.8822H11.9868V22.9364H14.4345V23.3131H11.6102V20.0684V20.0715Z" fill="black"/>
<path d="M17.6871 22.9395H20.1348V23.3162H17.3105V20.0715H17.6871V22.9395Z" fill="#F33EAA"/>
<path d="M21.1461 23.3162V20.0715H21.5258V23.3162H21.1461Z" fill="black"/>
<path d="M22.531 20.0715H25.3553V20.4513H22.9076V21.5055H24.4898V21.8822H22.9076V22.9364H25.3553V23.3131H22.531V20.0684V20.0715Z" fill="black"/>
<path d="M26.9254 21.8822V21.5055H28.4014V23.3162H28.0248V23.0914C27.7788 23.2372 27.4964 23.3162 27.2018 23.3162C26.7675 23.3162 26.3605 23.146 26.0538 22.8422C25.4221 22.2103 25.4221 21.1804 26.0538 20.5485C26.6855 19.9165 27.715 19.9165 28.3467 20.5485L28.0794 20.8158C27.8456 20.5819 27.5328 20.4513 27.1987 20.4513C26.8647 20.4513 26.5549 20.5819 26.318 20.8158C25.8321 21.3019 25.8321 22.0918 26.318 22.5749C26.5519 22.8088 26.8647 22.9395 27.1987 22.9395C27.5055 22.9395 27.794 22.8301 28.0217 22.6265V21.8822H26.9254Z" fill="black"/>
<path d="M29.4157 20.0715H32.24V20.4513H29.7923V21.5055H31.3745V21.8822H29.7923V22.9364H32.24V23.3131H29.4157V20.0684V20.0715Z" fill="black"/>
<path d="M35.7082 21.6938C35.7082 22.5901 34.9793 23.3162 34.0865 23.3162C33.1936 23.3162 32.4648 22.587 32.4648 21.6938C32.4648 20.8006 33.1936 20.0715 34.0865 20.0715C34.9793 20.0715 35.7082 20.8006 35.7082 21.6938ZM35.3286 21.6938C35.3286 21.0072 34.7698 20.4482 34.0834 20.4482C33.3971 20.4482 32.8383 21.0072 32.8383 21.6938C32.8383 22.3804 33.3971 22.9395 34.0834 22.9395C34.7698 22.9395 35.3286 22.3804 35.3286 21.6938Z" fill="black"/>
<path d="M36.6375 23.3162V20.0715H37.0171V23.3162H36.6375Z" fill="black"/>
<path d="M38.3321 20.9768C38.3321 21.2685 38.569 21.5055 38.8605 21.5055H39.8749C40.3729 21.5055 40.7799 21.9126 40.7799 22.4108C40.7799 22.9091 40.3729 23.3162 39.8749 23.3162H38.8605C38.3625 23.3162 37.9555 22.9091 37.9555 22.4108H38.3321C38.3321 22.7025 38.569 22.9395 38.8605 22.9395H39.8749C40.1664 22.9395 40.4033 22.7025 40.4033 22.4108C40.4033 22.1192 40.1664 21.8822 39.8749 21.8822H38.8605C38.3625 21.8822 37.9555 21.4751 37.9555 20.9768C37.9555 20.4786 38.3625 20.0715 38.8605 20.0715H39.8749C40.3729 20.0715 40.7799 20.4786 40.7799 20.9768H40.4003C40.4003 20.6852 40.1634 20.4482 39.8718 20.4482H38.8575C38.566 20.4482 38.3291 20.6852 38.3291 20.9768H38.3321Z" fill="black"/>
<path d="M46.4772 21.6938C46.4772 22.5901 45.7483 23.3162 44.8554 23.3162H43.6528V20.0715H44.8554C45.7483 20.0715 46.4772 20.8006 46.4772 21.6938ZM46.0975 21.6938C46.0975 21.0072 45.5387 20.4482 44.8524 20.4482H44.0294V22.9364H44.8524C45.5387 22.9364 46.0975 22.3774 46.0975 21.6908V21.6938Z" fill="black"/>
<path d="M51.233 22.4382L51.6096 23.3192H51.1996L50.9202 22.6691H49.2802L49.0008 23.3192H48.5909L48.9644 22.4412L49.0282 22.2893L49.9727 20.0745H50.2217L51.1662 22.2893L51.23 22.4382H51.233ZM50.7592 22.2863L50.1002 20.7399L49.4412 22.2863H50.7592Z" fill="#F33EAA"/>
<path d="M54.5615 22.5749L54.8287 22.8422C54.522 23.1491 54.115 23.3162 53.6808 23.3162C53.2465 23.3162 52.8395 23.146 52.5328 22.8422C52.2261 22.5354 52.059 22.1283 52.059 21.6938C52.059 21.2594 52.2291 20.8523 52.5328 20.5454C53.1645 19.9135 54.194 19.9135 54.8257 20.5454L54.5584 20.8128C54.3246 20.5789 54.0118 20.4482 53.6777 20.4482C53.3437 20.4482 53.0339 20.5789 52.797 20.8128C52.5632 21.0467 52.4326 21.3596 52.4326 21.6938C52.4326 22.028 52.5632 22.3379 52.797 22.5749C53.0309 22.8088 53.3437 22.9395 53.6777 22.9395C54.0118 22.9395 54.3215 22.8088 54.5584 22.5749H54.5615Z" fill="black"/>
<path d="M58.0084 22.5749L58.2756 22.8422C57.9689 23.1491 57.5619 23.3162 57.1277 23.3162C56.6934 23.3162 56.2864 23.146 55.9797 22.8422C55.673 22.5384 55.5059 22.1283 55.5059 21.6938C55.5059 21.2594 55.676 20.8523 55.9797 20.5454C56.6114 19.9135 57.6409 19.9135 58.2726 20.5454L58.0053 20.8128C57.7715 20.5789 57.4587 20.4482 57.1246 20.4482C56.7906 20.4482 56.4808 20.5789 56.2439 20.8128C56.007 21.0467 55.8795 21.3596 55.8795 21.6938C55.8795 22.028 56.0101 22.3379 56.2439 22.5749C56.4778 22.8088 56.7906 22.9395 57.1246 22.9395C57.4587 22.9395 57.7685 22.8088 58.0053 22.5749H58.0084Z" fill="black"/>
<path d="M62.1993 21.6938C62.1993 22.5901 61.4705 23.3162 60.5776 23.3162C59.6848 23.3162 58.9559 22.587 58.9559 21.6938C58.9559 20.8006 59.6848 20.0715 60.5776 20.0715C61.4705 20.0715 62.1993 20.8006 62.1993 21.6938ZM61.8197 21.6938C61.8197 21.0072 61.2609 20.4482 60.5746 20.4482C59.8882 20.4482 59.3294 21.0072 59.3294 21.6938C59.3294 22.3804 59.8882 22.9395 60.5746 22.9395C61.2609 22.9395 61.8197 22.3804 61.8197 21.6938Z" fill="black"/>
<path d="M66.3721 20.0715V23.3162H65.9925V21.0619L64.8658 23.3162H64.6319L63.5052 21.0619V23.3162H63.1256V20.0715H63.4323L64.7473 22.7055L66.0623 20.0715H66.3721Z" fill="black"/>
<path d="M70.1956 20.9768C70.1956 21.4751 69.7886 21.8822 69.2906 21.8822H67.7508V23.3162H67.3712V20.0715H69.2906C69.7886 20.0715 70.1956 20.4786 70.1956 20.9768ZM69.819 20.9768C69.819 20.6852 69.5821 20.4482 69.2906 20.4482H67.7508V21.5024H69.2906C69.5821 21.5024 69.819 21.2655 69.819 20.9738V20.9768Z" fill="black"/>
<path d="M73.3023 23.3192H72.8924L72.613 22.6691H70.973L70.6936 23.3192H70.2836L70.6602 22.4412L70.724 22.2893L71.6685 20.0745H71.9175L73.3023 23.3192ZM72.449 22.2863L71.79 20.7399L71.1309 22.2863H72.449Z" fill="black"/>
<path d="M75.1002 21.8822V21.5055H76.5762V23.3162H76.1996V23.0914C75.9536 23.2372 75.6712 23.3162 75.3766 23.3162C74.9423 23.3162 74.5353 23.146 74.2286 22.8422C73.5969 22.2103 73.5969 21.1804 74.2286 20.5485C74.8603 19.9165 75.8898 19.9165 76.5215 20.5485L76.2543 20.8158C76.0204 20.5819 75.7076 20.4513 75.3735 20.4513C75.0395 20.4513 74.7297 20.5819 74.4928 20.8158C74.0069 21.3019 74.0069 22.0918 74.4928 22.5749C74.7267 22.8088 75.0395 22.9395 75.3735 22.9395C75.6803 22.9395 75.9688 22.8301 76.1965 22.6265V21.8822H75.1002Z" fill="black"/>
<path d="M80.0322 20.0715H80.4118V23.3162H80.1354L77.964 20.7733V23.3162H77.5844V20.0715H77.8608L80.0322 22.6144V20.0715Z" fill="black"/>
<path d="M81.4231 20.0715H84.2474V20.4513H81.7997V21.5055H83.3819V21.8822H81.7997V22.9364H84.2474V23.3131H81.4231V20.0684V20.0715Z" fill="black"/>
<path d="M88.5052 20.0715V23.3162H88.1256V21.0619L86.9989 23.3162H86.7651L85.6384 21.0619V23.3162H85.2587V20.0715H85.5655L86.8805 22.7055L88.1955 20.0715H88.5052Z" fill="black"/>
<path d="M89.5044 20.0715H92.3287V20.4513H89.8809V21.5055H91.4632V21.8822H89.8809V22.9364H92.3287V23.3131H89.5044V20.0684V20.0715Z" fill="black"/>
<path d="M95.7847 20.0715H96.1644V23.3162H95.888L93.7166 20.7733V23.3162H93.337V20.0715H93.6133L95.7847 22.6144V20.0715Z" fill="black"/>
<path d="M100 20.0715V20.4513H98.7761V23.3192H98.3995V20.4513H97.1756V20.0715H100Z" fill="black"/>
<path d="M13.0558 26.7553H13.4657L12.0809 30H11.8319L10.447 26.7553H10.857L11.9564 29.3316L13.0558 26.7553Z" fill="black"/>
<path d="M14.4679 26.7553H17.2923V27.1351H14.8445V28.1893H16.4267V28.566H14.8445V29.6202H17.2923V29.997H14.4679V26.7523V26.7553Z" fill="black"/>
<path d="M20.1288 28.566L21.3526 30H20.8546L19.6307 28.566H18.6832V30H18.3036V26.7553H20.2229C20.721 26.7553 21.1279 27.1624 21.1279 27.6607C21.1279 28.1589 20.721 28.566 20.2229 28.566H20.1257H20.1288ZM20.2229 28.1893C20.5145 28.1893 20.7513 27.9523 20.7513 27.6607C20.7513 27.369 20.5145 27.132 20.2229 27.132H18.6832V28.1863H20.2229V28.1893Z" fill="black"/>
<path d="M22.5705 27.6607C22.5705 27.9523 22.8073 28.1893 23.0989 28.1893H24.1132C24.6113 28.1893 25.0182 28.5964 25.0182 29.0946C25.0182 29.5929 24.6113 30 24.1132 30H23.0989C22.6008 30 22.1939 29.5929 22.1939 29.0946H22.5705C22.5705 29.3863 22.8073 29.6233 23.0989 29.6233H24.1132C24.4048 29.6233 24.6416 29.3863 24.6416 29.0946C24.6416 28.803 24.4048 28.566 24.1132 28.566H23.0989C22.6008 28.566 22.1939 28.1589 22.1939 27.6607C22.1939 27.1624 22.6008 26.7553 23.0989 26.7553H24.1132C24.6113 26.7553 25.0182 27.1624 25.0182 27.6607H24.6386C24.6386 27.369 24.4017 27.132 24.1102 27.132H23.0958C22.8043 27.132 22.5674 27.369 22.5674 27.6607H22.5705Z" fill="black"/>
<path d="M30.3359 26.7553H30.7155V28.5873C30.7155 29.365 30.0808 30 29.3033 30C28.5259 30 27.8912 29.365 27.8912 28.5873V26.7553H28.2708V28.5873C28.2708 29.1584 28.7354 29.6233 29.3064 29.6233C29.8773 29.6233 30.342 29.1584 30.342 28.5873V26.7553H30.3359Z" fill="black"/>
<path d="M34.1715 26.7553H34.5481V30H34.2717L32.1003 27.4571V30H31.7238V26.7553H32.0001L34.1715 29.2982V26.7553Z" fill="black"/>
<path d="M35.5624 26.7553H38.3868V27.1351H35.939V28.1893H37.5213V28.566H35.939V29.6202H38.3868V29.997H35.5624V26.7523V26.7553Z" fill="black"/>
<path d="M41.2597 26.7553H44.0841V27.1351H41.6363V28.1893H43.2185V28.566H41.6363V29.6202H44.0841V29.997H41.2597V26.7523V26.7553Z" fill="black"/>
<path d="M46.8112 29.2587L47.0785 29.5261C46.7717 29.8329 46.3648 30 45.9305 30C45.4962 30 45.0893 29.8299 44.7826 29.5261C44.4758 29.2192 44.3088 28.8121 44.3088 28.3777C44.3088 27.9432 44.4789 27.5361 44.7826 27.2293C45.4142 26.5973 46.4438 26.5973 47.0754 27.2293L46.8082 27.4966C46.5743 27.2627 46.2615 27.132 45.9275 27.132C45.5934 27.132 45.2836 27.2627 45.0468 27.4966C44.8099 27.7305 44.6823 28.0435 44.6823 28.3777C44.6823 28.7118 44.8129 29.0217 45.0468 29.2587C45.2806 29.4957 45.5934 29.6233 45.9275 29.6233C46.2615 29.6233 46.5713 29.4926 46.8082 29.2587H46.8112Z" fill="black"/>
<path d="M50.9991 28.3777C50.9991 29.2739 50.2703 30 49.3774 30C48.4846 30 47.7557 29.2709 47.7557 28.3777C47.7557 27.4845 48.4846 26.7553 49.3774 26.7553C50.2703 26.7553 50.9991 27.4845 50.9991 28.3777ZM50.6226 28.3777C50.6226 27.691 50.0638 27.132 49.3774 27.132C48.6911 27.132 48.1323 27.691 48.1323 28.3777C48.1323 29.0643 48.6911 29.6233 49.3774 29.6233C50.0638 29.6233 50.6226 29.0643 50.6226 28.3777Z" fill="black"/>
<path d="M52.3081 29.6233H54.7558V30H51.9315V26.7553H52.3111V29.6233H52.3081Z" fill="black"/>
<path d="M55.7671 26.7553H58.5915V27.1351H56.1467V28.1893H57.729V28.566H56.1467V29.6202H58.5915V29.997H55.7671V26.7523V26.7553Z" fill="black"/>
<path d="M61.4644 30V26.7553H61.844V30H61.4644Z" fill="#F33EAA"/>
<path d="M65.297 26.7553H65.6766V30H65.4003L63.2289 27.4571V30H62.8492V26.7553H63.1256L65.297 29.2982V26.7553Z" fill="black"/>
<path d="M69.1175 29.2587L69.3847 29.5261C69.078 29.8329 68.671 30 68.2368 30C67.8025 30 67.3955 29.8299 67.0888 29.5261C66.7821 29.2222 66.615 28.8121 66.615 28.3777C66.615 27.9432 66.7851 27.5361 67.0888 27.2293C67.7205 26.5973 68.75 26.5973 69.3817 27.2293L69.1144 27.4966C68.8806 27.2627 68.5678 27.132 68.2337 27.132C67.8996 27.132 67.5899 27.2627 67.353 27.4966C67.1161 27.7305 66.9886 28.0435 66.9886 28.3777C66.9886 28.7118 67.1192 29.0217 67.353 29.2587C67.5869 29.4926 67.8996 29.6233 68.2337 29.6233C68.5678 29.6233 68.8775 29.4926 69.1144 29.2587H69.1175Z" fill="black"/>
<path d="M70.6511 29.6233H73.0989V30H70.2745V26.7553H70.6541V29.6233H70.6511Z" fill="black"/>
<path d="M76.23 26.7553H76.6096V28.5873C76.6096 29.365 75.9748 30 75.1974 30C74.4199 30 73.7852 29.365 73.7852 28.5873V26.7553H74.1648V28.5873C74.1648 29.1584 74.6295 29.6233 75.2004 29.6233C75.7714 29.6233 76.236 29.1584 76.236 28.5873V26.7553H76.23Z" fill="black"/>
<path d="M77.9276 27.6607C77.9276 27.9523 78.1645 28.1893 78.456 28.1893H79.4703C79.9684 28.1893 80.3753 28.5964 80.3753 29.0946C80.3753 29.5929 79.9684 30 79.4703 30H78.456C77.958 30 77.551 29.5929 77.551 29.0946H77.9306C77.9306 29.3863 78.1675 29.6233 78.459 29.6233H79.4734C79.7649 29.6233 80.0018 29.3863 80.0018 29.0946C80.0018 28.803 79.7649 28.566 79.4734 28.566H78.459C77.961 28.566 77.554 28.1589 77.554 27.6607C77.554 27.1624 77.961 26.7553 78.459 26.7553H79.4734C79.9714 26.7553 80.3784 27.1624 80.3784 27.6607H79.9988C79.9988 27.369 79.7619 27.132 79.4703 27.132H78.456C78.1645 27.132 77.9276 27.369 77.9276 27.6607Z" fill="black"/>
<path d="M81.3168 30V26.7553H81.6964V30H81.3168Z" fill="black"/>
<path d="M85.3104 26.7553H85.7204L84.3355 30H84.0865L82.7016 26.7553H83.1116L84.211 29.3316L85.3104 26.7553Z" fill="black"/>
<path d="M86.7225 26.7553H89.5469V27.1351H87.1022V28.1893H88.6844V28.566H87.1022V29.6202H89.5469V29.997H86.7225V26.7523V26.7553Z" fill="black"/>
</svg>