<svg width="100" height="100" viewBox="0 0 100 100" fill="none" xmlns="http://www.w3.org/2000/svg">
<path d="M100 16.4875V83.5126C99.9995 87.8991 98.354 92.0963 95.4396 95.1847C92.5263 98.2715 88.5834 99.9994 84.4811 100H66.0306C63.2811 100 61.0522 97.6185 61.0522 94.6808C61.0522 91.7431 63.2811 89.3616 66.0306 89.3616H84.4811C85.9694 89.3609 87.3891 88.7335 88.4289 87.6318C89.467 86.5316 90.0425 85.0489 90.043 83.5125V16.4875C90.0428 14.951 89.467 13.4686 88.4289 12.3682C87.3891 11.2665 85.9694 10.6391 84.4811 10.6384L66.0307 10.6384C63.2814 10.6384 61.0527 8.25644 61.0522 5.3192C61.0522 2.38149 63.2811 -2.56823e-07 66.0307 0L84.4811 1.72339e-06C88.5834 0.000644008 92.5263 1.72851 95.4396 4.81534C98.3539 7.90385 99.9997 12.1008 100 16.4875ZM31.2445 79.3777C29.2564 81.4068 26.1039 81.3302 24.2046 79.2063L1.37852 53.6751C-0.459506 51.6193 -0.459506 48.3807 1.37852 46.3249L24.2046 20.7937C26.1038 18.6694 29.2563 18.5931 31.2445 20.6223C33.2314 22.6516 33.3037 26.0202 31.405 28.144L16.6202 44.6782L64.718 44.6782C67.4668 44.6782 69.6954 47.0606 69.6964 49.9974C69.6964 52.9351 67.4675 55.3166 64.718 55.3166L16.6202 55.3166L31.405 71.856C33.3039 73.98 33.2319 77.3484 31.2445 79.3777Z" fill="currentColor"/>
</svg>