<svg width="100" height="82" viewBox="0 0 100 82" fill="none" xmlns="http://www.w3.org/2000/svg">
<path d="M0 63.9963V17.2537C5.15412e-06 7.72475 7.27537 0 16.25 0H83.75C92.7246 0 100 7.72475 100 17.2537V63.9963C99.9991 73.5244 92.7241 81.25 83.75 81.25H16.25C7.27594 81.25 0.000912196 73.5244 0 63.9963ZM50.0879 31.9048L83.5107 10.6177H18.8965L50.0879 31.9048ZM10 63.9963C10.0009 67.6605 12.7988 70.6323 16.25 70.6323H83.75C87.2012 70.6323 89.9991 67.6605 90 63.9963V18.8661L52.5732 42.7091C50.9422 43.7482 48.895 43.7131 47.2949 42.621L10 17.1656V63.9963Z" fill="currentColor"/>
</svg>