<svg width="0" height="0" class="hidden">
    <symbol fill="none" xmlns="http://www.w3.org/2000/svg" viewBox="0 0 100 100" id="close-burger">
        <path d="M87.739 1.1598C89.2732 -0.3866 91.76 -0.3866 93.2942 1.1598L98.8494 6.75922C100.384 8.30562 100.384 10.8122 98.8494 12.3586L59.8788 51.6396L95.5961 87.6414C97.1301 89.1877 97.1299 91.6944 95.5961 93.2408L90.0409 98.8402C88.5067 100.387 86.0199 100.387 84.4857 98.8402L48.7685 62.8384L15.5143 96.3576C13.9801 97.9037 11.4932 97.9039 9.9591 96.3576L4.40393 90.7582C2.86985 89.2119 2.87003 86.7052 4.40393 85.1588L37.6582 51.6396L1.15063 14.8412C-0.383545 13.2948 -0.383545 10.7882 1.15063 9.24183L6.7058 3.64241C8.24 2.09633 10.7269 2.09612 12.261 3.64241L48.7685 40.4408L87.739 1.1598Z" fill="#D80E87"></path>
    </symbol>
    <symbol fill="none" xmlns="http://www.w3.org/2000/svg" viewBox="0 0 100 100" id="falc">
        <path d="M83.1615 0H16.8385C7.53883 0 0 7.53885 0 16.8385V83.1615C0 92.4612 7.53883 100 16.8385 100H83.1615C92.4611 100 100 92.4612 100 83.1615V16.8385C100 7.53885 92.4611 0 83.1615 0Z" fill="#263A94"></path>
        <path d="M51.5464 84.1924V43.299C51.5464 42.6117 51.7182 42.4399 52.4055 42.268C57.3883 41.2371 62.5429 40.378 67.6976 39.8625C70.9622 39.6907 74.2268 39.1753 77.3196 38.3162C79.3814 37.6289 81.4433 36.9416 83.5051 36.2543C83.677 36.2543 83.8488 36.2543 84.1924 36.0825V52.7491C84.1924 60.4811 84.1924 68.2131 84.1924 75.945C84.1924 76.8041 83.8488 77.4914 83.1615 77.8351C80.2405 79.5533 76.9759 80.5842 73.7113 81.0997C70.2749 81.6151 66.6666 81.9588 63.2302 82.4742C59.7938 82.9897 56.3574 83.677 52.9209 84.1924H51.5464ZM55.3265 79.5533C56.3574 79.2096 57.2165 79.0378 58.0756 78.866C61.1684 78.3505 64.2612 77.6632 67.354 77.1478C70.7904 76.8041 74.2268 75.945 77.4914 74.9141C77.6632 74.9141 78.0068 74.7423 78.0068 74.5705V71.6495C73.7113 73.1959 69.4158 74.2268 64.7766 74.7423C61.6839 75.0859 58.7629 75.945 55.6701 76.4605C55.3264 76.4605 55.1546 76.6323 55.1546 76.9759C55.1546 77.8351 55.1546 78.6942 55.1546 79.5533H55.3265ZM78.0068 42.7835L76.6323 43.299C72.6804 44.8454 68.3849 45.3608 64.2611 45.8763C61.3402 46.2199 58.4192 46.9072 55.6701 47.5945C55.4983 47.5945 55.3265 47.7663 55.3265 48.11V50.8591C55.3265 50.8591 55.4983 50.8591 55.6701 50.8591C59.9656 49.6564 64.2612 48.7972 68.7285 48.2818C71.8213 47.9381 74.7423 47.2509 77.6632 46.2199C78.0069 46.2199 78.3505 45.8763 78.1787 45.5326C78.1787 44.6735 78.1787 43.8144 78.1787 42.9553L78.0068 42.7835ZM78.0068 65.8076L77.3196 66.1512C74.055 67.354 70.6186 68.2131 67.1821 68.5567C63.2302 68.9003 59.4501 69.5876 55.6701 70.6186C55.4983 70.6186 55.3265 70.9622 55.3265 71.134V73.8832C55.3265 73.8832 55.6701 73.8832 55.8419 73.8832C60.1374 72.6804 64.6048 71.8213 69.0722 71.3058C71.9931 70.9622 74.7423 70.2749 77.4914 69.244C77.835 69.244 78.1787 68.9003 78.0068 68.5567C78.0068 67.6976 78.0068 66.8385 78.0068 65.9794V65.8076ZM55.8419 56.5292C57.9038 55.8419 59.7938 55.3265 61.8557 54.9828C64.7766 54.4674 67.6976 54.2955 70.4467 53.6082C72.8522 53.0928 75.0859 52.4055 77.4914 51.89C77.6632 51.89 78.0068 51.5464 78.0068 51.5464C78.0068 50.5155 78.0068 49.6564 78.0068 48.6254C76.6323 49.1409 75.0859 49.6564 73.5395 50C70.4467 51.0309 67.0103 51.2028 63.7457 51.7182C60.9966 52.2337 58.4192 52.7491 55.6701 53.2646C55.3264 53.2646 55.1546 53.2646 55.1546 53.7801C55.1546 54.6392 55.1546 55.4983 55.1546 56.5292H55.8419ZM55.3265 62.1993C55.4983 62.1993 55.6701 62.1993 55.8419 62.1993C60.3093 60.9966 64.7766 60.1375 69.4158 59.622C72.1649 59.2784 74.9141 58.5911 77.6632 57.5601C77.8351 57.5601 78.1787 57.2165 78.1787 57.0447V54.2955C74.055 55.8419 69.5876 56.8729 65.1203 57.2165C62.0275 57.5601 59.1065 58.4192 56.0137 58.9347C55.6701 58.9347 55.4983 59.1065 55.4983 59.622C55.4983 60.4811 55.4983 61.3402 55.4983 62.1993H55.3265Z" fill="white"></path>
        <path d="M48.6254 84.0206C47.2508 83.8488 46.0481 83.5052 44.8454 83.3333C39.8625 82.646 34.7079 81.9588 29.7251 81.2715C25.4295 80.9278 21.4777 79.7251 17.5258 77.8351C16.4949 77.4914 15.9794 76.4605 15.9794 75.4296C15.9794 66.1512 15.9794 56.8729 15.9794 47.5945C15.9794 43.9863 15.9794 40.2062 15.9794 36.5979V35.9107C16.8385 36.2543 17.5258 36.5979 18.2131 36.7698C22.3368 38.3162 26.6323 39.1753 31.0997 39.6907C35.9107 40.2062 40.8935 41.0653 45.7045 41.7526C46.5636 41.7526 47.4227 42.0962 48.2818 42.268C48.6254 42.268 48.7972 42.4399 48.7972 42.7835V83.677C48.7972 83.677 48.7972 83.8488 48.7972 84.0206H48.6254ZM35.3952 58.2474C36.5979 56.8729 37.4571 55.3265 38.1443 53.6082C39.1753 50.8591 38.8316 48.2818 36.5979 46.2199C35.9106 45.7045 35.2234 45.189 34.3643 45.0172C33.677 44.6735 33.3333 45.0172 33.3333 45.7045C33.3333 46.7354 33.3333 47.7663 33.1615 48.6254C33.1615 50 32.8178 51.2027 31.4433 52.0619C29.7251 53.2646 28.1787 54.6392 26.8041 56.1856C25.945 57.0447 25.0859 57.9038 24.2268 58.7629C24.2268 58.9347 23.8832 59.1065 23.5395 59.1065C22.165 59.1065 20.7904 59.1065 19.4158 59.1065C18.3849 59.1065 18.5567 58.7629 18.0412 59.9656C17.0103 63.0584 16.8385 66.4948 17.6976 69.5876C17.6976 70.1031 18.213 70.2749 18.5567 70.2749C19.7594 70.2749 21.134 70.2749 22.3368 70.2749C22.6804 70.2749 22.8522 70.4467 23.024 70.6186C23.7113 71.3058 24.2268 72.165 24.7423 72.8522C26.2886 74.5705 28.0068 76.1168 30.5842 75.945C31.0996 75.945 31.4433 75.945 31.9588 75.945C32.3024 75.945 32.6461 75.945 32.9897 76.1168C34.0206 76.6323 35.2234 76.8041 36.2543 76.6323C37.457 76.6323 38.3161 75.7732 38.488 74.7423C38.488 74.5704 38.6598 74.3986 39.0034 74.2268C40.5498 73.8832 41.0653 72.8522 41.4089 71.4777C41.4089 71.3058 41.4089 71.134 41.7525 70.9622C42.7835 70.4467 43.4708 69.0722 43.1271 67.8694C43.1271 67.6976 43.1272 67.354 43.299 67.1821C44.5017 66.1512 44.6735 64.2612 43.6426 63.0584C43.1271 62.3711 42.4399 61.8557 41.5808 61.3402C39.5189 59.7938 37.2852 58.7629 34.8797 58.0756L35.3952 58.2474Z" fill="white"></path>
        <path d="M63.402 32.3024C63.2302 33.677 62.8865 35.3952 62.5429 37.1134C62.5429 37.457 62.3711 37.6289 62.0275 37.6289L50.8591 39.6907C50.6873 39.6907 50.5155 39.6907 50.1718 39.6907C46.2199 39.0034 42.268 38.3162 38.1443 37.6289C37.9725 37.6289 37.8006 37.457 37.6288 37.1134C36.9415 31.0997 38.1443 25.4296 41.9244 20.6186C43.6426 18.2131 46.3917 16.4948 49.3127 15.9794C52.4055 15.4639 55.6701 16.4948 57.9038 18.5567C60.6529 21.134 62.5429 24.5704 62.8866 28.3505C63.0584 29.5533 63.0584 30.756 63.2302 32.3024H63.402ZM45.7044 33.8488C46.0481 35.567 48.1099 37.457 49.4845 37.6289C51.3745 37.9725 53.2646 37.1134 54.4673 35.567C51.2027 36.2543 48.2818 36.2543 45.7044 33.677V33.8488ZM57.5601 29.3814C57.5601 29.0378 57.5601 28.866 57.5601 28.5223C57.5601 28.0069 57.2164 27.4914 56.5292 27.4914C56.0137 27.4914 55.4983 27.6632 55.3264 28.1787C54.6392 29.2096 54.4673 30.4124 54.9828 31.4433C54.9828 31.9588 55.67 32.3024 56.3573 32.1306C56.5292 32.1306 56.8728 31.9588 56.8728 31.7869C57.3883 31.0997 57.7319 30.2405 57.7319 29.3814H57.5601ZM46.3917 28.1787C46.3917 27.8351 46.3917 27.4914 46.3917 27.3196C46.3917 26.8041 46.0481 26.2887 45.3608 26.2887C44.8453 26.2887 44.3299 26.4605 43.9862 26.9759C43.2989 27.8351 43.1271 29.0378 43.6426 30.0687C43.6426 30.756 44.3299 31.0997 45.0172 30.9278C45.3608 30.9278 45.5326 30.756 45.7044 30.4124C46.2199 29.7251 46.3917 29.0378 46.3917 28.1787Z" fill="white"></path>
        <path d="M42.6116 68.5567C42.6116 69.4158 42.0962 70.2749 41.2371 70.4467C40.0343 70.9622 38.8316 70.9622 37.6288 70.4467C35.7388 69.7595 34.0206 68.9003 32.3024 68.2131C31.9587 68.0412 31.4433 67.6976 31.6151 67.1821C31.6151 66.6667 32.4742 65.8076 32.9897 65.8076C32.9897 65.8076 33.3333 65.8076 33.5051 65.9794C35.567 66.8385 37.6289 67.6976 39.8625 68.5567C40.8935 68.5567 41.9244 68.7285 42.7835 68.5567H42.6116Z" fill="white"></path>
        <path d="M31.0996 68.7285C34.1924 70.2749 37.1134 72.165 40.8934 71.6495C40.7216 72.5086 40.2061 73.1959 39.1752 73.3677C38.3161 73.3677 37.457 73.3677 36.5979 73.3677C34.7079 72.6804 32.9897 71.8213 31.0996 70.9622C30.0687 70.4467 30.0687 69.7595 31.0996 68.9003V68.7285Z" fill="white"></path>
        <path d="M37.9725 74.7423C37.8007 75.4296 37.457 75.945 36.5979 75.7732C35.9106 75.7732 35.0516 75.7732 34.3643 75.4296C32.9897 74.7423 31.4433 74.055 30.0687 73.1959C29.7251 73.1959 29.5533 72.6804 29.7251 72.3368C29.8969 71.9931 30.0687 71.8213 30.5842 71.9931C32.3024 72.8522 34.1924 73.7113 35.9107 74.3986C36.4261 74.3986 37.1134 74.7423 37.6289 74.7423H37.9725Z" fill="white"></path>
        <path d="M34.5361 46.0481C36.0825 46.5636 37.6288 48.6254 37.6288 50.5155C37.6288 52.2337 37.1134 53.9519 36.0825 55.3265C35.567 56.1856 34.8797 57.0447 34.3642 57.9038C34.1924 58.0756 34.0206 58.4192 34.1924 58.7629C34.1924 59.1065 34.536 59.2784 34.8797 59.4502C37.8006 60.1375 40.5498 61.6838 42.9553 63.5739C43.6426 64.0893 43.9862 64.9485 43.8144 65.8076C43.4708 66.8385 42.6117 67.354 41.5808 67.5258C40.8935 67.5258 40.2062 67.5258 39.5189 67.354C37.8007 66.6667 36.0825 65.9794 34.3642 65.2921C34.0206 65.2921 33.5051 64.7766 33.5051 64.433C33.5051 63.7457 33.8488 63.2302 34.3642 63.0584C35.0515 62.7148 35.7388 62.7148 36.4261 63.0584C37.6289 63.5739 38.6598 64.0894 39.6907 64.6048L40.2062 63.9175C38.8316 62.8866 37.2852 62.1993 35.7388 62.0275C34.1924 61.6839 32.646 62.7148 32.3024 64.433C32.3024 64.433 32.3024 64.6048 32.3024 64.7766C32.3024 64.9485 32.1306 65.2921 31.7869 65.2921C30.9278 65.8076 30.2405 66.6667 30.2405 67.8694C30.2405 68.0412 30.2405 68.3849 29.8969 68.5567C29.2096 69.244 29.0378 70.4467 29.3814 71.3058C28.866 71.9931 28.1787 72.6804 28.6942 73.5395C29.2096 74.2268 29.7251 74.7423 30.2405 75.2577C29.0378 75.2577 28.0068 74.7423 27.3196 74.055C25.945 73.0241 24.9141 71.6495 23.8831 70.1031C23.8831 69.7594 23.3677 69.5876 23.024 69.5876C21.8213 69.5876 20.4467 69.5876 19.244 69.5876C19.0722 69.5876 18.9003 69.4158 18.7285 69.244C18.0412 66.323 18.0412 63.4021 19.0722 60.6529C20.2749 60.6529 21.3058 60.6529 22.3368 60.6529C23.5395 60.8247 24.7422 60.4811 25.4295 59.4502C27.1477 57.3883 28.866 55.3265 31.0996 53.9519C33.1615 52.5773 33.8488 50.6873 34.0206 48.4536V46.5636L34.5361 46.0481Z" fill="white"></path>
    </symbol>
    <symbol fill="none" xmlns="http://www.w3.org/2000/svg" viewBox="0 0 100 24" id="logo">
        <path d="M56.7253 17.8647H55.1987C55.036 17.8647 54.9042 17.9981 54.9042 18.1628V23.6886C54.9042 23.8532 55.036 23.9867 55.1987 23.9867H56.7253C56.8879 23.9867 57.0198 23.8532 57.0198 23.6886V18.1628C57.0198 17.9981 56.8879 17.8647 56.7253 17.8647Z" fill="#F33EAA"></path>
        <path d="M53.6521 17.8647H52.1256C51.9629 17.8647 51.831 17.9981 51.831 18.1628V23.6886C51.831 23.8532 51.9629 23.9867 52.1256 23.9867H53.6521C53.8148 23.9867 53.9467 23.8532 53.9467 23.6886V18.1628C53.9467 17.9981 53.8148 17.8647 53.6521 17.8647Z" fill="#F33EAA"></path>
        <path d="M28.6321 0.928299H30.0582C30.2423 0.928299 30.393 1.08076 30.393 1.26709V19.5281C30.393 19.6738 30.5101 19.7924 30.6541 19.7924H45.32V21.8489H28.5585C28.4145 21.8489 28.2973 21.7303 28.2973 21.5846V1.26709C28.2973 1.08076 28.4446 0.928299 28.6321 0.928299Z" fill="black"></path>
        <path d="M17.7591 0.935075C17.7591 0.935075 7.67942 0.931687 5.72107 0.931687C5.53695 0.931687 5.393 1.08753 5.393 1.27387V21.5135C5.393 21.7032 5.54364 21.8557 5.73111 21.8557H7.09024C7.2777 21.8557 7.42835 21.7032 7.42835 21.5135V12.7455C7.42835 12.61 7.53882 12.4982 7.67272 12.4982H17.6453C20.2966 12.4982 23.3764 10.4315 23.3764 6.61667C23.3764 2.1378 19.6538 0.931687 17.7591 0.931687V0.935075ZM17.672 10.3773H7.69281C7.5589 10.3773 7.45178 10.2689 7.45178 10.1334L7.43504 3.2897C7.43504 3.15418 7.54217 3.04577 7.67607 3.04577H17.8361C18.7198 3.04577 21.2941 3.98762 21.2941 6.71153C21.2941 9.43544 18.6361 10.3773 17.672 10.3773Z" fill="black"></path>
        <path d="M71.977 1.13496C71.9234 1.00961 71.8029 0.928299 71.669 0.928299H70.6647C70.5308 0.928299 70.4103 1.00961 70.3567 1.13496L61.8471 21.3814C61.7534 21.605 61.9141 21.8523 62.1551 21.8523H63.6782C63.8121 21.8523 63.9327 21.771 63.9829 21.649L65.6533 17.7529C65.6902 17.6682 65.7705 17.614 65.8642 17.614H76.4594C76.5498 17.614 76.6335 17.6682 76.6703 17.7529L78.3408 21.649C78.3943 21.771 78.5149 21.8523 78.6454 21.8523H80.1686C80.4096 21.8523 80.5703 21.605 80.4765 21.3814L71.977 1.13496ZM66.9455 15.4863C66.7815 15.4863 66.671 15.3169 66.7346 15.1645L70.9593 5.18357C71.0396 4.99723 71.3007 4.99723 71.3811 5.18357L75.6058 15.1645C75.6694 15.3169 75.5589 15.4863 75.3949 15.4863H66.9455Z" fill="black"></path>
        <path d="M97.8239 1.49409H96.2974C96.1347 1.49409 96.0028 1.62757 96.0028 1.79223V21.6084C96.0028 21.773 96.1347 21.9065 96.2974 21.9065H97.8239C97.9866 21.9065 98.1185 21.773 98.1185 21.6084V1.79223C98.1185 1.62757 97.9866 1.49409 97.8239 1.49409Z" fill="black"></path>
        <path d="M99.9429 0.623383L97.5192 4.87526C97.3619 5.15307 96.9669 5.15307 96.8062 4.87526L94.3825 0.623383C94.2252 0.345571 94.4227 0 94.7374 0H99.5881C99.9061 0 100.104 0.345571 99.9429 0.623383Z" fill="#F33EAA"></path>
        <path d="M68.3917 14.2633L70.8153 10.0114C70.9727 9.73358 71.3677 9.73358 71.5284 10.0114L73.9521 14.2633C74.1094 14.5411 73.9119 14.8867 73.5972 14.8867H68.7465C68.4285 14.8867 68.231 14.5411 68.3917 14.2633Z" fill="#F33EAA"></path>
        <path d="M45.9794 17.8952L50.4887 20.531C50.7833 20.7038 50.7833 21.134 50.4887 21.3034L45.9794 23.9393C45.6848 24.1121 45.3166 23.8952 45.3166 23.553V18.2848C45.3166 17.9426 45.6848 17.7258 45.9794 17.8985V17.8952Z" fill="#F33EAA"></path>
        <path d="M4.73017 9.60484L0.220942 6.96902C-0.0736474 6.79623 -0.0736474 6.36596 0.220942 6.19656L4.73017 3.56074C5.02476 3.38795 5.393 3.60478 5.393 3.94696V9.21523C5.393 9.55741 5.02476 9.77424 4.73017 9.60145V9.60484Z" fill="#F33EAA"></path>
    </symbol>
    <symbol fill="none" xmlns="http://www.w3.org/2000/svg" viewBox="0 0 100 74" id="burger">
        <path d="M0 3.08333C0 1.38046 1.39911 0 3.125 0H96.875C98.6009 0 100 1.38046 100 3.08333V9.25C100 10.9529 98.6009 12.3333 96.875 12.3333H3.125C1.39911 12.3333 0 10.9529 0 9.25V3.08333Z" fill="#D80E87"></path>
        <path d="M0 33.9167C0 32.2138 1.39911 30.8333 3.125 30.8333H96.875C98.6009 30.8333 100 32.2138 100 33.9167V40.0833C100 41.7862 98.6009 43.1667 96.875 43.1667H3.125C1.39911 43.1667 0 41.7862 0 40.0833V33.9167Z" fill="#D80E87"></path>
        <path d="M0 64.75C0 63.0471 1.39911 61.6667 3.125 61.6667H96.875C98.6009 61.6667 100 63.0471 100 64.75V70.9167C100 72.6195 98.6009 74 96.875 74H3.125C1.39911 74 0 72.6195 0 70.9167V64.75Z" fill="#D80E87"></path>
    </symbol>
    <symbol fill="none" xmlns="http://www.w3.org/2000/svg" viewBox="0 0 100 30" id="logo-footer">
        <path d="M53.6769 9.76974H52.8423C52.7534 9.76974 52.6812 9.84274 52.6812 9.93279V12.9547C52.6812 13.0447 52.7534 13.1177 52.8423 13.1177H53.6769C53.7658 13.1177 53.838 13.0447 53.838 12.9547V9.93279C53.838 9.84274 53.7658 9.76974 53.6769 9.76974Z" fill="#F33EAA"></path>
        <path d="M51.9967 9.76974H51.1621C51.0732 9.76974 51.0011 9.84274 51.0011 9.93279V12.9547C51.0011 13.0447 51.0732 13.1177 51.1621 13.1177H51.9967C52.0857 13.1177 52.1578 13.0447 52.1578 12.9547V9.93279C52.1578 9.84274 52.0857 9.76974 51.9967 9.76974Z" fill="#F33EAA"></path>
        <path d="M38.3176 0.507663H39.0972C39.1979 0.507663 39.2803 0.591039 39.2803 0.692942V10.6795C39.2803 10.7591 39.3443 10.824 39.423 10.824H47.4413V11.9486H38.2773C38.1986 11.9486 38.1345 11.8838 38.1345 11.8041V0.692942C38.1345 0.591039 38.2151 0.507663 38.3176 0.507663Z" fill="black"></path>
        <path d="M32.373 0.511369C32.373 0.511369 26.8621 0.509516 25.7914 0.509516C25.6908 0.509516 25.6121 0.594744 25.6121 0.696647V11.7652C25.6121 11.8689 25.6944 11.9523 25.7969 11.9523H26.54C26.6425 11.9523 26.7248 11.8689 26.7248 11.7652V6.97018C26.7248 6.89607 26.7852 6.83493 26.8585 6.83493H32.3107C33.7603 6.83493 35.4441 5.70473 35.4441 3.61849C35.4441 1.16911 33.4089 0.509516 32.373 0.509516V0.511369ZM32.3254 5.67508H26.8694C26.7962 5.67508 26.7377 5.61579 26.7377 5.54168L26.7285 1.79906C26.7285 1.72494 26.7871 1.66565 26.8603 1.66565H32.415C32.8982 1.66565 34.3057 2.18073 34.3057 3.67037C34.3057 5.16001 32.8525 5.67508 32.3254 5.67508Z" fill="black"></path>
        <path d="M62.0154 0.620683C61.9862 0.55213 61.9203 0.507663 61.8471 0.507663H61.298C61.2248 0.507663 61.1589 0.55213 61.1296 0.620683L56.4772 11.6929C56.4259 11.8152 56.5138 11.9505 56.6455 11.9505H57.4783C57.5515 11.9505 57.6174 11.906 57.6448 11.8393L58.5581 9.7086C58.5783 9.66228 58.6222 9.63263 58.6734 9.63263H64.4661C64.5155 9.63263 64.5613 9.66228 64.5814 9.7086L65.4947 11.8393C65.524 11.906 65.5899 11.9505 65.6613 11.9505H66.494C66.6258 11.9505 66.7137 11.8152 66.6624 11.6929L62.0154 0.620683ZM59.2646 8.46908C59.1749 8.46908 59.1145 8.37644 59.1493 8.29307L61.4591 2.83476C61.503 2.73286 61.6457 2.73286 61.6897 2.83476L63.9994 8.29307C64.0342 8.37644 63.9738 8.46908 63.8841 8.46908H59.2646Z" fill="black"></path>
        <path d="M76.1467 0.817079H75.3121C75.2232 0.817079 75.151 0.890076 75.151 0.980124V11.8171C75.151 11.9071 75.2232 11.9801 75.3121 11.9801H76.1467C76.2356 11.9801 76.3078 11.9071 76.3078 11.8171V0.980124C76.3078 0.890076 76.2356 0.817079 76.1467 0.817079Z" fill="black"></path>
        <path d="M77.3052 0.340913L75.9801 2.66616C75.8941 2.81809 75.6782 2.81809 75.5903 2.66616L74.2652 0.340913C74.1792 0.188984 74.2872 0 74.4592 0H77.1112C77.2851 0 77.3931 0.188984 77.3052 0.340913Z" fill="#F33EAA"></path>
        <path d="M60.0553 7.80023L61.3804 5.47498C61.4664 5.32305 61.6823 5.32305 61.7702 5.47498L63.0953 7.80023C63.1813 7.95216 63.0733 8.14114 62.9013 8.14114H60.2493C60.0754 8.14114 59.9674 7.95216 60.0553 7.80023Z" fill="#F33EAA"></path>
        <path d="M47.8018 9.78642L50.2672 11.2279C50.4282 11.3224 50.4282 11.5577 50.2672 11.6503L47.8018 13.0918C47.6408 13.1863 47.4394 13.0677 47.4394 12.8806V9.99949C47.4394 9.81235 47.6408 9.69378 47.8018 9.78827V9.78642Z" fill="#F33EAA"></path>
        <path d="M25.2497 5.25265L22.7843 3.81118C22.6233 3.71669 22.6233 3.48138 22.7843 3.38875L25.2497 1.94728C25.4107 1.85279 25.6121 1.97136 25.6121 2.1585V5.03958C25.6121 5.22671 25.4107 5.34529 25.2497 5.2508V5.25265Z" fill="#F33EAA"></path>
        <path d="M47.5917 20.1535H47.2789V21.1287H47.5917V20.1535Z" fill="black"></path>
        <path d="M23.9759 18.75L23.6427 19.4862L23.9221 19.6128L24.2553 18.8766L23.9759 18.75Z" fill="black"></path>
        <path d="M5.80053 19.3515L5.45129 18.9899L5.2387 18.7712V18.7681L5.01701 18.9808V18.9838L4.65865 19.3332L4.87123 19.552L5.22959 19.2026L5.57884 19.5611L5.80053 19.3515Z" fill="black"></path>
        <path d="M42.7161 25.4108L42.3829 26.147L42.6623 26.2736L42.9955 25.5374L42.7161 25.4108Z" fill="black"></path>
        <path d="M2.82131 20.9768C2.82131 21.4751 2.41436 21.8822 1.9163 21.8822H0.376579V23.3162H0V20.0715H1.91934C2.4174 20.0715 2.82434 20.4786 2.82434 20.9768H2.82131ZM2.44169 20.9768C2.44169 20.6852 2.20481 20.4482 1.91326 20.4482H0.373542V21.5024H1.91326C2.20481 21.5024 2.44169 21.2655 2.44169 20.9738V20.9768Z" fill="#F33EAA"></path>
        <path d="M6.84524 21.6938C6.84524 22.5901 6.11637 23.3162 5.22352 23.3162C4.33066 23.3162 3.6018 22.587 3.6018 21.6938C3.6018 20.8006 4.33066 20.0715 5.22352 20.0715C6.11637 20.0715 6.84524 20.8006 6.84524 21.6938ZM6.46562 21.6938C6.46562 21.0072 5.90683 20.4482 5.22048 20.4482C4.53413 20.4482 3.97534 21.0072 3.97534 21.6938C3.97534 22.3804 4.53413 22.9395 5.22048 22.9395C5.90683 22.9395 6.46562 22.3804 6.46562 21.6938Z" fill="black"></path>
        <path d="M8.15415 22.9395H10.6019V23.3162H7.77757V20.0715H8.15719V22.9395H8.15415Z" fill="black"></path>
        <path d="M11.6102 20.0715H14.4345V20.4513H11.9868V21.5055H13.569V21.8822H11.9868V22.9364H14.4345V23.3131H11.6102V20.0684V20.0715Z" fill="black"></path>
        <path d="M17.6871 22.9395H20.1348V23.3162H17.3105V20.0715H17.6871V22.9395Z" fill="#F33EAA"></path>
        <path d="M21.1461 23.3162V20.0715H21.5258V23.3162H21.1461Z" fill="black"></path>
        <path d="M22.531 20.0715H25.3553V20.4513H22.9076V21.5055H24.4898V21.8822H22.9076V22.9364H25.3553V23.3131H22.531V20.0684V20.0715Z" fill="black"></path>
        <path d="M26.9254 21.8822V21.5055H28.4014V23.3162H28.0248V23.0914C27.7788 23.2372 27.4964 23.3162 27.2018 23.3162C26.7675 23.3162 26.3605 23.146 26.0538 22.8422C25.4221 22.2103 25.4221 21.1804 26.0538 20.5485C26.6855 19.9165 27.715 19.9165 28.3467 20.5485L28.0794 20.8158C27.8456 20.5819 27.5328 20.4513 27.1987 20.4513C26.8647 20.4513 26.5549 20.5819 26.318 20.8158C25.8321 21.3019 25.8321 22.0918 26.318 22.5749C26.5519 22.8088 26.8647 22.9395 27.1987 22.9395C27.5055 22.9395 27.794 22.8301 28.0217 22.6265V21.8822H26.9254Z" fill="black"></path>
        <path d="M29.4157 20.0715H32.24V20.4513H29.7923V21.5055H31.3745V21.8822H29.7923V22.9364H32.24V23.3131H29.4157V20.0684V20.0715Z" fill="black"></path>
        <path d="M35.7082 21.6938C35.7082 22.5901 34.9793 23.3162 34.0865 23.3162C33.1936 23.3162 32.4648 22.587 32.4648 21.6938C32.4648 20.8006 33.1936 20.0715 34.0865 20.0715C34.9793 20.0715 35.7082 20.8006 35.7082 21.6938ZM35.3286 21.6938C35.3286 21.0072 34.7698 20.4482 34.0834 20.4482C33.3971 20.4482 32.8383 21.0072 32.8383 21.6938C32.8383 22.3804 33.3971 22.9395 34.0834 22.9395C34.7698 22.9395 35.3286 22.3804 35.3286 21.6938Z" fill="black"></path>
        <path d="M36.6375 23.3162V20.0715H37.0171V23.3162H36.6375Z" fill="black"></path>
        <path d="M38.3321 20.9768C38.3321 21.2685 38.569 21.5055 38.8605 21.5055H39.8749C40.3729 21.5055 40.7799 21.9126 40.7799 22.4108C40.7799 22.9091 40.3729 23.3162 39.8749 23.3162H38.8605C38.3625 23.3162 37.9555 22.9091 37.9555 22.4108H38.3321C38.3321 22.7025 38.569 22.9395 38.8605 22.9395H39.8749C40.1664 22.9395 40.4033 22.7025 40.4033 22.4108C40.4033 22.1192 40.1664 21.8822 39.8749 21.8822H38.8605C38.3625 21.8822 37.9555 21.4751 37.9555 20.9768C37.9555 20.4786 38.3625 20.0715 38.8605 20.0715H39.8749C40.3729 20.0715 40.7799 20.4786 40.7799 20.9768H40.4003C40.4003 20.6852 40.1634 20.4482 39.8718 20.4482H38.8575C38.566 20.4482 38.3291 20.6852 38.3291 20.9768H38.3321Z" fill="black"></path>
        <path d="M46.4772 21.6938C46.4772 22.5901 45.7483 23.3162 44.8554 23.3162H43.6528V20.0715H44.8554C45.7483 20.0715 46.4772 20.8006 46.4772 21.6938ZM46.0975 21.6938C46.0975 21.0072 45.5387 20.4482 44.8524 20.4482H44.0294V22.9364H44.8524C45.5387 22.9364 46.0975 22.3774 46.0975 21.6908V21.6938Z" fill="black"></path>
        <path d="M51.233 22.4382L51.6096 23.3192H51.1996L50.9202 22.6691H49.2802L49.0008 23.3192H48.5909L48.9644 22.4412L49.0282 22.2893L49.9727 20.0745H50.2217L51.1662 22.2893L51.23 22.4382H51.233ZM50.7592 22.2863L50.1002 20.7399L49.4412 22.2863H50.7592Z" fill="#F33EAA"></path>
        <path d="M54.5615 22.5749L54.8287 22.8422C54.522 23.1491 54.115 23.3162 53.6808 23.3162C53.2465 23.3162 52.8395 23.146 52.5328 22.8422C52.2261 22.5354 52.059 22.1283 52.059 21.6938C52.059 21.2594 52.2291 20.8523 52.5328 20.5454C53.1645 19.9135 54.194 19.9135 54.8257 20.5454L54.5584 20.8128C54.3246 20.5789 54.0118 20.4482 53.6777 20.4482C53.3437 20.4482 53.0339 20.5789 52.797 20.8128C52.5632 21.0467 52.4326 21.3596 52.4326 21.6938C52.4326 22.028 52.5632 22.3379 52.797 22.5749C53.0309 22.8088 53.3437 22.9395 53.6777 22.9395C54.0118 22.9395 54.3215 22.8088 54.5584 22.5749H54.5615Z" fill="black"></path>
        <path d="M58.0084 22.5749L58.2756 22.8422C57.9689 23.1491 57.5619 23.3162 57.1277 23.3162C56.6934 23.3162 56.2864 23.146 55.9797 22.8422C55.673 22.5384 55.5059 22.1283 55.5059 21.6938C55.5059 21.2594 55.676 20.8523 55.9797 20.5454C56.6114 19.9135 57.6409 19.9135 58.2726 20.5454L58.0053 20.8128C57.7715 20.5789 57.4587 20.4482 57.1246 20.4482C56.7906 20.4482 56.4808 20.5789 56.2439 20.8128C56.007 21.0467 55.8795 21.3596 55.8795 21.6938C55.8795 22.028 56.0101 22.3379 56.2439 22.5749C56.4778 22.8088 56.7906 22.9395 57.1246 22.9395C57.4587 22.9395 57.7685 22.8088 58.0053 22.5749H58.0084Z" fill="black"></path>
        <path d="M62.1993 21.6938C62.1993 22.5901 61.4705 23.3162 60.5776 23.3162C59.6848 23.3162 58.9559 22.587 58.9559 21.6938C58.9559 20.8006 59.6848 20.0715 60.5776 20.0715C61.4705 20.0715 62.1993 20.8006 62.1993 21.6938ZM61.8197 21.6938C61.8197 21.0072 61.2609 20.4482 60.5746 20.4482C59.8882 20.4482 59.3294 21.0072 59.3294 21.6938C59.3294 22.3804 59.8882 22.9395 60.5746 22.9395C61.2609 22.9395 61.8197 22.3804 61.8197 21.6938Z" fill="black"></path>
        <path d="M66.3721 20.0715V23.3162H65.9925V21.0619L64.8658 23.3162H64.6319L63.5052 21.0619V23.3162H63.1256V20.0715H63.4323L64.7473 22.7055L66.0623 20.0715H66.3721Z" fill="black"></path>
        <path d="M70.1956 20.9768C70.1956 21.4751 69.7886 21.8822 69.2906 21.8822H67.7508V23.3162H67.3712V20.0715H69.2906C69.7886 20.0715 70.1956 20.4786 70.1956 20.9768ZM69.819 20.9768C69.819 20.6852 69.5821 20.4482 69.2906 20.4482H67.7508V21.5024H69.2906C69.5821 21.5024 69.819 21.2655 69.819 20.9738V20.9768Z" fill="black"></path>
        <path d="M73.3023 23.3192H72.8924L72.613 22.6691H70.973L70.6936 23.3192H70.2836L70.6602 22.4412L70.724 22.2893L71.6685 20.0745H71.9175L73.3023 23.3192ZM72.449 22.2863L71.79 20.7399L71.1309 22.2863H72.449Z" fill="black"></path>
        <path d="M75.1002 21.8822V21.5055H76.5762V23.3162H76.1996V23.0914C75.9536 23.2372 75.6712 23.3162 75.3766 23.3162C74.9423 23.3162 74.5353 23.146 74.2286 22.8422C73.5969 22.2103 73.5969 21.1804 74.2286 20.5485C74.8603 19.9165 75.8898 19.9165 76.5215 20.5485L76.2543 20.8158C76.0204 20.5819 75.7076 20.4513 75.3735 20.4513C75.0395 20.4513 74.7297 20.5819 74.4928 20.8158C74.0069 21.3019 74.0069 22.0918 74.4928 22.5749C74.7267 22.8088 75.0395 22.9395 75.3735 22.9395C75.6803 22.9395 75.9688 22.8301 76.1965 22.6265V21.8822H75.1002Z" fill="black"></path>
        <path d="M80.0322 20.0715H80.4118V23.3162H80.1354L77.964 20.7733V23.3162H77.5844V20.0715H77.8608L80.0322 22.6144V20.0715Z" fill="black"></path>
        <path d="M81.4231 20.0715H84.2474V20.4513H81.7997V21.5055H83.3819V21.8822H81.7997V22.9364H84.2474V23.3131H81.4231V20.0684V20.0715Z" fill="black"></path>
        <path d="M88.5052 20.0715V23.3162H88.1256V21.0619L86.9989 23.3162H86.7651L85.6384 21.0619V23.3162H85.2587V20.0715H85.5655L86.8805 22.7055L88.1955 20.0715H88.5052Z" fill="black"></path>
        <path d="M89.5044 20.0715H92.3287V20.4513H89.8809V21.5055H91.4632V21.8822H89.8809V22.9364H92.3287V23.3131H89.5044V20.0684V20.0715Z" fill="black"></path>
        <path d="M95.7847 20.0715H96.1644V23.3162H95.888L93.7166 20.7733V23.3162H93.337V20.0715H93.6133L95.7847 22.6144V20.0715Z" fill="black"></path>
        <path d="M100 20.0715V20.4513H98.7761V23.3192H98.3995V20.4513H97.1756V20.0715H100Z" fill="black"></path>
        <path d="M13.0558 26.7553H13.4657L12.0809 30H11.8319L10.447 26.7553H10.857L11.9564 29.3316L13.0558 26.7553Z" fill="black"></path>
        <path d="M14.4679 26.7553H17.2923V27.1351H14.8445V28.1893H16.4267V28.566H14.8445V29.6202H17.2923V29.997H14.4679V26.7523V26.7553Z" fill="black"></path>
        <path d="M20.1288 28.566L21.3526 30H20.8546L19.6307 28.566H18.6832V30H18.3036V26.7553H20.2229C20.721 26.7553 21.1279 27.1624 21.1279 27.6607C21.1279 28.1589 20.721 28.566 20.2229 28.566H20.1257H20.1288ZM20.2229 28.1893C20.5145 28.1893 20.7513 27.9523 20.7513 27.6607C20.7513 27.369 20.5145 27.132 20.2229 27.132H18.6832V28.1863H20.2229V28.1893Z" fill="black"></path>
        <path d="M22.5705 27.6607C22.5705 27.9523 22.8073 28.1893 23.0989 28.1893H24.1132C24.6113 28.1893 25.0182 28.5964 25.0182 29.0946C25.0182 29.5929 24.6113 30 24.1132 30H23.0989C22.6008 30 22.1939 29.5929 22.1939 29.0946H22.5705C22.5705 29.3863 22.8073 29.6233 23.0989 29.6233H24.1132C24.4048 29.6233 24.6416 29.3863 24.6416 29.0946C24.6416 28.803 24.4048 28.566 24.1132 28.566H23.0989C22.6008 28.566 22.1939 28.1589 22.1939 27.6607C22.1939 27.1624 22.6008 26.7553 23.0989 26.7553H24.1132C24.6113 26.7553 25.0182 27.1624 25.0182 27.6607H24.6386C24.6386 27.369 24.4017 27.132 24.1102 27.132H23.0958C22.8043 27.132 22.5674 27.369 22.5674 27.6607H22.5705Z" fill="black"></path>
        <path d="M30.3359 26.7553H30.7155V28.5873C30.7155 29.365 30.0808 30 29.3033 30C28.5259 30 27.8912 29.365 27.8912 28.5873V26.7553H28.2708V28.5873C28.2708 29.1584 28.7354 29.6233 29.3064 29.6233C29.8773 29.6233 30.342 29.1584 30.342 28.5873V26.7553H30.3359Z" fill="black"></path>
        <path d="M34.1715 26.7553H34.5481V30H34.2717L32.1003 27.4571V30H31.7238V26.7553H32.0001L34.1715 29.2982V26.7553Z" fill="black"></path>
        <path d="M35.5624 26.7553H38.3868V27.1351H35.939V28.1893H37.5213V28.566H35.939V29.6202H38.3868V29.997H35.5624V26.7523V26.7553Z" fill="black"></path>
        <path d="M41.2597 26.7553H44.0841V27.1351H41.6363V28.1893H43.2185V28.566H41.6363V29.6202H44.0841V29.997H41.2597V26.7523V26.7553Z" fill="black"></path>
        <path d="M46.8112 29.2587L47.0785 29.5261C46.7717 29.8329 46.3648 30 45.9305 30C45.4962 30 45.0893 29.8299 44.7826 29.5261C44.4758 29.2192 44.3088 28.8121 44.3088 28.3777C44.3088 27.9432 44.4789 27.5361 44.7826 27.2293C45.4142 26.5973 46.4438 26.5973 47.0754 27.2293L46.8082 27.4966C46.5743 27.2627 46.2615 27.132 45.9275 27.132C45.5934 27.132 45.2836 27.2627 45.0468 27.4966C44.8099 27.7305 44.6823 28.0435 44.6823 28.3777C44.6823 28.7118 44.8129 29.0217 45.0468 29.2587C45.2806 29.4957 45.5934 29.6233 45.9275 29.6233C46.2615 29.6233 46.5713 29.4926 46.8082 29.2587H46.8112Z" fill="black"></path>
        <path d="M50.9991 28.3777C50.9991 29.2739 50.2703 30 49.3774 30C48.4846 30 47.7557 29.2709 47.7557 28.3777C47.7557 27.4845 48.4846 26.7553 49.3774 26.7553C50.2703 26.7553 50.9991 27.4845 50.9991 28.3777ZM50.6226 28.3777C50.6226 27.691 50.0638 27.132 49.3774 27.132C48.6911 27.132 48.1323 27.691 48.1323 28.3777C48.1323 29.0643 48.6911 29.6233 49.3774 29.6233C50.0638 29.6233 50.6226 29.0643 50.6226 28.3777Z" fill="black"></path>
        <path d="M52.3081 29.6233H54.7558V30H51.9315V26.7553H52.3111V29.6233H52.3081Z" fill="black"></path>
        <path d="M55.7671 26.7553H58.5915V27.1351H56.1467V28.1893H57.729V28.566H56.1467V29.6202H58.5915V29.997H55.7671V26.7523V26.7553Z" fill="black"></path>
        <path d="M61.4644 30V26.7553H61.844V30H61.4644Z" fill="#F33EAA"></path>
        <path d="M65.297 26.7553H65.6766V30H65.4003L63.2289 27.4571V30H62.8492V26.7553H63.1256L65.297 29.2982V26.7553Z" fill="black"></path>
        <path d="M69.1175 29.2587L69.3847 29.5261C69.078 29.8329 68.671 30 68.2368 30C67.8025 30 67.3955 29.8299 67.0888 29.5261C66.7821 29.2222 66.615 28.8121 66.615 28.3777C66.615 27.9432 66.7851 27.5361 67.0888 27.2293C67.7205 26.5973 68.75 26.5973 69.3817 27.2293L69.1144 27.4966C68.8806 27.2627 68.5678 27.132 68.2337 27.132C67.8996 27.132 67.5899 27.2627 67.353 27.4966C67.1161 27.7305 66.9886 28.0435 66.9886 28.3777C66.9886 28.7118 67.1192 29.0217 67.353 29.2587C67.5869 29.4926 67.8996 29.6233 68.2337 29.6233C68.5678 29.6233 68.8775 29.4926 69.1144 29.2587H69.1175Z" fill="black"></path>
        <path d="M70.6511 29.6233H73.0989V30H70.2745V26.7553H70.6541V29.6233H70.6511Z" fill="black"></path>
        <path d="M76.23 26.7553H76.6096V28.5873C76.6096 29.365 75.9748 30 75.1974 30C74.4199 30 73.7852 29.365 73.7852 28.5873V26.7553H74.1648V28.5873C74.1648 29.1584 74.6295 29.6233 75.2004 29.6233C75.7714 29.6233 76.236 29.1584 76.236 28.5873V26.7553H76.23Z" fill="black"></path>
        <path d="M77.9276 27.6607C77.9276 27.9523 78.1645 28.1893 78.456 28.1893H79.4703C79.9684 28.1893 80.3753 28.5964 80.3753 29.0946C80.3753 29.5929 79.9684 30 79.4703 30H78.456C77.958 30 77.551 29.5929 77.551 29.0946H77.9306C77.9306 29.3863 78.1675 29.6233 78.459 29.6233H79.4734C79.7649 29.6233 80.0018 29.3863 80.0018 29.0946C80.0018 28.803 79.7649 28.566 79.4734 28.566H78.459C77.961 28.566 77.554 28.1589 77.554 27.6607C77.554 27.1624 77.961 26.7553 78.459 26.7553H79.4734C79.9714 26.7553 80.3784 27.1624 80.3784 27.6607H79.9988C79.9988 27.369 79.7619 27.132 79.4703 27.132H78.456C78.1645 27.132 77.9276 27.369 77.9276 27.6607Z" fill="black"></path>
        <path d="M81.3168 30V26.7553H81.6964V30H81.3168Z" fill="black"></path>
        <path d="M85.3104 26.7553H85.7204L84.3355 30H84.0865L82.7016 26.7553H83.1116L84.211 29.3316L85.3104 26.7553Z" fill="black"></path>
        <path d="M86.7225 26.7553H89.5469V27.1351H87.1022V28.1893H88.6844V28.566H87.1022V29.6202H89.5469V29.997H86.7225V26.7523V26.7553Z" fill="black"></path>
    </symbol>
</svg>